<svg width="17" height="16" viewBox="0 0 17 16" fill="none" xmlns="http://www.w3.org/2000/svg">
<rect x="1.5" y="1" width="14" height="14" fill="#75BEFF" stroke="#C5C5C5" stroke-linejoin="bevel"/>
<path d="M6.36115 11V5.18182H8.6907C9.11873 5.18182 9.47573 5.24527 9.76172 5.37216C10.0477 5.49905 10.2627 5.67519 10.4066 5.90057C10.5505 6.12405 10.6225 6.38163 10.6225 6.6733C10.6225 6.90057 10.5771 7.10038 10.4862 7.27273C10.3952 7.44318 10.2702 7.58333 10.1112 7.69318C9.95395 7.80114 9.77403 7.87784 9.57138 7.9233V7.98011C9.79297 7.98958 10.0004 8.05208 10.1935 8.16761C10.3886 8.28314 10.5468 8.44508 10.668 8.65341C10.7892 8.85985 10.8498 9.10606 10.8498 9.39205C10.8498 9.70076 10.7731 9.97633 10.6197 10.2188C10.4682 10.4593 10.2437 10.6496 9.94638 10.7898C9.64903 10.9299 9.28255 11 8.84695 11H6.36115ZM7.59126 9.99432H8.59411C8.93691 9.99432 9.18691 9.92898 9.34411 9.7983C9.5013 9.66572 9.5799 9.48958 9.5799 9.26989C9.5799 9.1089 9.54107 8.96686 9.46342 8.84375C9.38577 8.72064 9.27498 8.62405 9.13104 8.55398C8.98899 8.4839 8.81948 8.44886 8.62251 8.44886H7.59126V9.99432ZM7.59126 7.61648H8.5032C8.67176 7.61648 8.82138 7.58712 8.95206 7.52841C9.08464 7.4678 9.1888 7.38258 9.26456 7.27273C9.34221 7.16288 9.38104 7.03125 9.38104 6.87784C9.38104 6.66761 9.30623 6.49811 9.15661 6.36932C9.00888 6.24053 8.79865 6.17614 8.52592 6.17614H7.59126V7.61648Z" fill="#404040"/>
</svg>
