<svg width="17" height="16" viewBox="0 0 17 16" fill="none" xmlns="http://www.w3.org/2000/svg">
<rect x="1.5" y="1" width="14" height="14" fill="#89D185" stroke="#C5C5C5" stroke-linejoin="bevel"/>
<path d="M4.5718 11H3.25362L5.26214 5.18182H6.84737L8.85305 11H7.53487L6.07749 6.51136H6.03203L4.5718 11ZM4.48942 8.71307H7.60305V9.6733H4.48942V8.71307ZM9.15334 11V5.18182H11.4829C11.9109 5.18182 12.2679 5.24527 12.5539 5.37216C12.8399 5.49905 13.0549 5.67519 13.1988 5.90057C13.3427 6.12405 13.4147 6.38163 13.4147 6.6733C13.4147 6.90057 13.3692 7.10038 13.2783 7.27273C13.1874 7.44318 13.0624 7.58333 12.9033 7.69318C12.7461 7.80114 12.5662 7.87784 12.3636 7.9233V7.98011C12.5852 7.98958 12.7925 8.05208 12.9857 8.16761C13.1808 8.28314 13.3389 8.44508 13.4602 8.65341C13.5814 8.85985 13.642 9.10606 13.642 9.39205C13.642 9.70076 13.5653 9.97633 13.4119 10.2188C13.2603 10.4593 13.0359 10.6496 12.7386 10.7898C12.4412 10.9299 12.0747 11 11.6391 11H9.15334ZM10.3835 9.99432H11.3863C11.7291 9.99432 11.9791 9.92898 12.1363 9.7983C12.2935 9.66572 12.3721 9.48958 12.3721 9.26989C12.3721 9.1089 12.3333 8.96686 12.2556 8.84375C12.178 8.72064 12.0672 8.62405 11.9232 8.55398C11.7812 8.4839 11.6117 8.44886 11.4147 8.44886H10.3835V9.99432ZM10.3835 7.61648H11.2954C11.4639 7.61648 11.6136 7.58712 11.7442 7.52841C11.8768 7.4678 11.981 7.38258 12.0567 7.27273C12.1344 7.16288 12.1732 7.03125 12.1732 6.87784C12.1732 6.66761 12.0984 6.49811 11.9488 6.36932C11.8011 6.24053 11.5908 6.17614 11.3181 6.17614H10.3835V7.61648Z" fill="#404040"/>
</svg>
