<svg width="450" height="450" viewBox="0 0 450 450" fill="none" xmlns="http://www.w3.org/2000/svg">
<rect width="450" height="450" rx="30" fill="#282C34"/>
<rect x="68.5" y="65" width="115" height="115" rx="5" stroke="white" stroke-width="10"/>
<path d="M111.663 152.5H98.4815L118.567 94.3182H134.419L154.476 152.5H141.294L126.72 107.614H126.266L111.663 152.5ZM110.839 129.631H141.976V139.233H110.839V129.631Z" fill="#DB6A73"/>
<g clip-path="url(#clip0_9_463)">
<rect x="56" y="215" width="58" height="18" rx="9" fill="#98C379"/>
<rect x="129" y="215" width="30" height="18" rx="9" fill="#E5C07B"/>
<rect x="174" y="215" width="22" height="18" rx="9" fill="#E5C07B"/>
</g>
<g clip-path="url(#clip1_9_463)">
<rect x="56" y="253" width="29" height="18" rx="9" fill="#599FD9"/>
<rect x="100" y="253" width="18" height="18" rx="9" fill="#D9D9D9"/>
<rect x="133" y="253" width="63" height="18" rx="9" fill="#C075D7"/>
</g>
<g clip-path="url(#clip2_9_463)">
<rect x="56" y="291" width="44" height="18" rx="9" fill="#E5C07B"/>
<rect x="115" y="291" width="44" height="18" rx="9" fill="#D9D9D9"/>
<rect x="174" y="291" width="22" height="18" rx="9" fill="#50A3AE"/>
</g>
<g clip-path="url(#clip3_9_463)">
<rect x="56" y="329" width="25" height="18" rx="9" fill="#DB6A73"/>
<rect x="96" y="329" width="40" height="18" rx="9" fill="#C075D7"/>
<rect x="151" y="329" width="45" height="18" rx="9" fill="#599FD9"/>
</g>
<g clip-path="url(#clip4_9_463)">
<rect x="56" y="367" width="103" height="18" rx="9" fill="#50A3AE"/>
<rect x="174" y="367" width="22" height="18" rx="9" fill="#98C379"/>
</g>
<rect x="221" y="62.5" width="8" height="23.75" rx="2" fill="white"/>
<rect x="221" y="106.25" width="8" height="23.75" rx="2" fill="white"/>
<rect x="221" y="150" width="8" height="23.75" rx="2" fill="white"/>
<rect x="221" y="193.75" width="8" height="23.75" rx="2" fill="white"/>
<rect x="221" y="237.5" width="8" height="23.75" rx="2" fill="white"/>
<rect x="221" y="281.25" width="8" height="23.75" rx="2" fill="white"/>
<rect x="221" y="325" width="8" height="23.75" rx="2" fill="white"/>
<rect x="221" y="368.75" width="8" height="23.75" rx="2" fill="white"/>
<rect x="266.5" y="65" width="115" height="115" rx="5" stroke="white" stroke-width="10"/>
<path d="M302.612 152.5V94.3182H325.907C330.187 94.3182 333.757 94.9527 336.617 96.2216C339.477 97.4905 341.627 99.2519 343.066 101.506C344.505 103.741 345.225 106.316 345.225 109.233C345.225 111.506 344.771 113.504 343.862 115.227C342.952 116.932 341.702 118.333 340.112 119.432C338.54 120.511 336.74 121.278 334.714 121.733V122.301C336.93 122.396 339.004 123.021 340.935 124.176C342.886 125.331 344.468 126.951 345.68 129.034C346.892 131.098 347.498 133.561 347.498 136.42C347.498 139.508 346.731 142.263 345.197 144.688C343.682 147.093 341.437 148.996 338.464 150.398C335.49 151.799 331.826 152.5 327.469 152.5H302.612ZM314.913 142.443H324.941C328.369 142.443 330.869 141.79 332.441 140.483C334.013 139.157 334.799 137.396 334.799 135.199C334.799 133.589 334.411 132.169 333.634 130.938C332.858 129.706 331.75 128.741 330.31 128.04C328.89 127.339 327.195 126.989 325.225 126.989H314.913V142.443ZM314.913 118.665H324.032C325.718 118.665 327.214 118.371 328.521 117.784C329.846 117.178 330.888 116.326 331.646 115.227C332.422 114.129 332.81 112.812 332.81 111.278C332.81 109.176 332.062 107.481 330.566 106.193C329.089 104.905 326.987 104.261 324.259 104.261H314.913V118.665Z" fill="#599FD9"/>
<g clip-path="url(#clip5_9_463)">
<rect x="254" y="215" width="29" height="18" rx="9" fill="#599FD9"/>
<rect x="298" y="215" width="18" height="18" rx="9" fill="#98C379"/>
<rect x="331" y="215" width="63" height="18" rx="9" fill="#DB6A73"/>
</g>
<g clip-path="url(#clip6_9_463)">
<rect x="254" y="253" width="44" height="18" rx="9" fill="#E5C07B"/>
<rect x="313" y="253" width="44" height="18" rx="9" fill="#D9D9D9"/>
<rect x="372" y="253" width="22" height="18" rx="9" fill="#50A3AE"/>
</g>
<g clip-path="url(#clip7_9_463)">
<rect x="254" y="291" width="25" height="18" rx="9" fill="#98C379"/>
<rect x="294" y="291" width="30" height="18" rx="9" fill="#DB6A73"/>
<rect x="339" y="291" width="55" height="18" rx="9" fill="#599FD9"/>
</g>
<g clip-path="url(#clip8_9_463)">
<rect x="254" y="329" width="103" height="18" rx="9" fill="#50A3AE"/>
<rect x="372" y="329" width="22" height="18" rx="9" fill="#98C379"/>
</g>
<g clip-path="url(#clip9_9_463)">
<rect x="254" y="367" width="25" height="18" rx="9" fill="#DB6A73"/>
<rect x="294" y="367" width="30" height="18" rx="9" fill="#D9D9D9"/>
<rect x="339" y="367" width="55" height="18" rx="9" fill="#E5C07B"/>
</g>
<path d="M243.623 304.529C243.354 304.476 243.08 304.455 242.806 304.467C242.332 304.492 241.869 304.612 241.443 304.82C240.617 305.218 239.976 305.919 239.655 306.776C239.334 307.633 239.357 308.581 239.719 309.422L239.694 309.457L247.848 329.105C255.649 324.14 261.568 316.723 264.671 308.027L243.659 304.485L243.623 304.529ZM210.93 307.314C210.753 306.539 210.321 305.846 209.702 305.346C209.084 304.846 208.315 304.567 207.519 304.554C207.283 304.551 207.049 304.572 206.818 304.616L206.782 304.573L185.954 308.1C189.081 316.727 194.976 324.084 202.724 329.029L210.795 309.574L210.732 309.498C211.03 308.81 211.099 308.044 210.93 307.314ZM228.374 314.943C228.07 314.378 227.617 313.905 227.065 313.576C226.512 313.246 225.881 313.073 225.237 313.074C224.594 313.074 223.962 313.249 223.411 313.58C222.859 313.911 222.408 314.384 222.105 314.951H222.088L211.845 333.425C219.179 335.916 227.063 336.32 234.615 334.593C236.015 334.276 237.383 333.894 238.718 333.449L228.452 314.942L228.374 314.943ZM260.799 272.029L245.04 286.098L245.049 286.143C244.564 286.565 244.204 287.11 244.005 287.72C243.807 288.33 243.777 288.982 243.92 289.608C244.064 290.233 244.374 290.808 244.818 291.272C245.263 291.736 245.825 292.071 246.445 292.241L246.464 292.326L266.876 298.191C267.759 289.044 265.625 279.859 260.799 272.03V272.029ZM231.521 273.605C231.55 274.246 231.753 274.867 232.108 275.401C232.463 275.936 232.957 276.366 233.536 276.643C234.116 276.921 234.76 277.037 235.401 276.979C236.041 276.921 236.654 276.691 237.174 276.313L237.236 276.339L254.481 264.144C247.916 257.731 239.422 253.646 230.304 252.519L231.502 273.599L231.521 273.605ZM213.259 276.391C213.779 276.768 214.392 276.997 215.033 277.054C215.673 277.112 216.317 276.995 216.897 276.716C217.476 276.437 217.968 276.007 218.322 275.471C218.675 274.935 218.876 274.314 218.904 273.673L218.992 273.632L220.19 252.518C218.744 252.691 217.307 252.938 215.886 253.258C208.327 254.952 201.394 258.721 195.868 264.138L213.226 276.411L213.259 276.391ZM204.006 292.344C204.627 292.175 205.191 291.841 205.637 291.378C206.082 290.914 206.394 290.338 206.537 289.712C206.681 289.086 206.651 288.433 206.451 287.822C206.252 287.211 205.89 286.666 205.404 286.245L205.421 286.161L189.574 272.024C184.74 279.872 182.665 289.103 183.677 298.259L203.99 292.413L204.006 292.344ZM219.397 298.555L225.243 301.358L231.071 298.56L232.519 292.284L228.485 287.253H221.993L217.948 292.277L219.397 298.555Z" fill="#326CE5"/>
<path d="M321.88 310.92L305.223 238.752C304.775 236.885 303.917 235.14 302.711 233.644C301.506 232.147 299.982 230.937 298.25 230.099L230.825 197.989C229.077 197.158 227.165 196.726 225.229 196.726C223.293 196.726 221.381 197.158 219.633 197.989L152.221 230.116C150.489 230.953 148.965 232.164 147.759 233.66C146.553 235.156 145.694 236.901 145.246 238.768L128.616 310.934C128.206 312.758 128.204 314.65 128.612 316.475C128.732 317.031 128.889 317.578 129.082 318.113C129.407 319.027 129.838 319.899 130.366 320.713C130.594 321.061 130.835 321.4 131.097 321.728L177.759 379.594C177.962 379.846 178.187 380.075 178.41 380.309C179.142 381.087 179.969 381.77 180.871 382.343C182.012 383.06 183.255 383.599 184.559 383.943C185.627 384.235 186.73 384.386 187.838 384.394H188.564L262.666 384.376C263.116 384.374 263.566 384.348 264.014 384.297C264.656 384.225 265.292 384.104 265.916 383.937C266.363 383.819 266.804 383.679 267.236 383.515C267.573 383.387 267.91 383.258 268.235 383.102C268.722 382.87 269.194 382.608 269.649 382.318C270.823 381.582 271.869 380.659 272.744 379.586L274.167 377.822L319.39 321.709C320.256 320.624 320.937 319.405 321.405 318.099C321.6 317.562 321.76 317.013 321.883 316.455C322.292 314.63 322.291 312.738 321.879 310.914L321.88 310.92ZM251.944 338.988C252.133 339.543 252.358 340.085 252.616 340.612C252.204 341.332 252.091 342.185 252.304 342.987C253.285 345.228 254.483 347.368 255.881 349.376C256.664 350.403 257.386 351.474 258.045 352.584C258.207 352.885 258.42 353.35 258.574 353.668C258.864 354.152 259.05 354.691 259.119 355.251C259.188 355.811 259.138 356.38 258.974 356.919C258.809 357.459 258.533 357.959 258.164 358.386C257.794 358.813 257.339 359.158 256.828 359.399C256.316 359.641 255.76 359.772 255.194 359.786C254.629 359.8 254.067 359.696 253.544 359.48C253.021 359.264 252.55 358.941 252.16 358.533C251.769 358.124 251.469 357.639 251.279 357.107C251.125 356.793 250.91 356.373 250.779 356.076C250.318 354.869 249.927 353.638 249.608 352.387C248.909 350.046 247.981 347.779 246.839 345.619C246.343 344.951 245.603 344.503 244.78 344.372C244.651 344.15 244.173 343.276 243.917 342.825C231.914 347.358 218.657 347.324 206.678 342.729L205.765 344.379C205.113 344.48 204.507 344.775 204.026 345.225C202.65 347.477 201.598 349.911 200.901 352.456C200.585 353.707 200.196 354.938 199.737 356.144C199.608 356.44 199.392 356.854 199.238 357.168V357.176L199.231 357.184C199.041 357.716 198.74 358.202 198.35 358.611C197.96 359.02 197.488 359.343 196.964 359.559C196.441 359.775 195.878 359.879 195.312 359.865C194.746 359.851 194.189 359.718 193.678 359.476C193.166 359.234 192.711 358.887 192.342 358.459C191.973 358.03 191.698 357.53 191.535 356.989C191.372 356.448 191.324 355.879 191.395 355.319C191.466 354.758 191.654 354.219 191.946 353.735C192.098 353.416 192.302 352.953 192.463 352.653C193.121 351.54 193.843 350.466 194.625 349.436C196.049 347.375 197.272 345.182 198.278 342.888C198.385 342.111 198.26 341.319 197.918 340.612L198.653 338.857C187.609 332.356 179.332 322.048 175.383 309.878L173.625 310.177C172.942 309.694 172.138 309.412 171.303 309.362C168.897 309.821 166.542 310.512 164.27 311.426C163.09 311.955 161.882 312.417 160.649 312.809C160.358 312.889 159.937 312.969 159.604 313.042C159.577 313.051 159.555 313.063 159.528 313.069C159.507 313.072 159.486 313.074 159.466 313.075C158.93 313.251 158.364 313.313 157.802 313.258C157.241 313.203 156.698 313.031 156.207 312.754C155.716 312.478 155.289 312.102 154.952 311.651C154.615 311.2 154.377 310.683 154.251 310.135C154.126 309.587 154.117 309.018 154.225 308.466C154.332 307.914 154.554 307.391 154.876 306.929C155.199 306.468 155.614 306.078 156.096 305.786C156.577 305.494 157.115 305.305 157.674 305.232L157.732 305.218L157.768 305.208C158.105 305.129 158.537 305.018 158.845 304.958C160.129 304.781 161.422 304.677 162.717 304.648C165.161 304.488 167.583 304.092 169.949 303.463C170.651 303.018 171.243 302.421 171.684 301.718L173.373 301.226C171.54 288.524 174.472 275.595 181.608 264.917L180.314 263.767C180.267 262.932 179.986 262.127 179.504 261.444C177.645 259.851 175.635 258.442 173.502 257.238C172.35 256.652 171.233 256.001 170.157 255.287C169.912 255.105 169.587 254.831 169.321 254.616L169.261 254.574C168.343 253.916 167.724 252.923 167.538 251.811C167.352 250.699 167.614 249.559 168.268 248.64C168.655 248.168 169.148 247.794 169.706 247.547C170.265 247.301 170.874 247.189 171.484 247.221C172.511 247.265 173.497 247.636 174.297 248.28C174.571 248.494 174.947 248.781 175.191 248.99C176.13 249.876 177.018 250.816 177.849 251.803C179.498 253.611 181.32 255.253 183.289 256.707C184.027 257.094 184.887 257.177 185.686 256.939C186.166 257.289 186.652 257.632 187.141 257.971C194.232 250.453 203.414 245.221 213.508 242.946C215.91 242.403 218.348 242.029 220.803 241.827L220.898 240.126C221.525 239.57 221.98 238.848 222.208 238.043C222.296 235.601 222.146 233.157 221.759 230.744C221.502 229.479 221.318 228.201 221.208 226.916C221.198 226.623 221.214 226.219 221.218 225.885C221.218 225.847 221.208 225.809 221.208 225.772C221.151 225.21 221.212 224.641 221.389 224.104C221.566 223.566 221.853 223.072 222.233 222.652C222.613 222.232 223.077 221.897 223.595 221.667C224.114 221.437 224.674 221.318 225.241 221.318C225.808 221.318 226.369 221.436 226.887 221.665C227.406 221.895 227.87 222.23 228.25 222.649C228.631 223.069 228.919 223.563 229.096 224.1C229.273 224.637 229.335 225.206 229.279 225.768C229.279 226.121 229.3 226.589 229.287 226.913C229.177 228.198 228.992 229.476 228.734 230.74C228.344 233.153 228.191 235.598 228.277 238.041C228.436 238.858 228.909 239.58 229.595 240.053C229.609 240.344 229.657 241.315 229.693 241.85C242.449 243.007 254.351 248.743 263.187 257.993L264.722 256.899C265.547 257.04 266.395 256.948 267.17 256.634C269.139 255.177 270.961 253.533 272.61 251.724C273.443 250.736 274.333 249.797 275.275 248.911C275.523 248.699 275.896 248.415 276.17 248.2C276.575 247.801 277.059 247.492 277.591 247.293C278.124 247.094 278.692 247.008 279.26 247.042C279.827 247.076 280.382 247.228 280.886 247.49C281.391 247.751 281.835 248.115 282.189 248.559C282.544 249.003 282.801 249.515 282.943 250.064C283.086 250.614 283.112 251.186 283.018 251.746C282.924 252.305 282.714 252.839 282.4 253.312C282.087 253.785 281.677 254.187 281.197 254.492C280.926 254.71 280.569 255.014 280.309 255.207C279.23 255.921 278.11 256.573 276.956 257.158C274.823 258.362 272.813 259.771 270.954 261.364C270.413 261.996 270.141 262.814 270.197 263.643C269.972 263.849 269.184 264.546 268.766 264.924C275.922 275.563 278.913 288.453 277.172 301.147L278.801 301.62C279.208 302.351 279.811 302.955 280.541 303.365C282.909 303.994 285.332 304.392 287.777 304.553C289.071 304.583 290.363 304.686 291.645 304.862C291.985 304.924 292.475 305.06 292.821 305.139C293.38 305.212 293.918 305.401 294.4 305.693C294.881 305.986 295.296 306.375 295.618 306.837C295.94 307.299 296.162 307.822 296.269 308.375C296.377 308.927 296.368 309.495 296.242 310.043C296.116 310.592 295.877 311.108 295.54 311.559C295.203 312.01 294.776 312.385 294.285 312.662C293.794 312.938 293.25 313.109 292.689 313.164C292.128 313.219 291.561 313.157 291.026 312.981L290.967 312.973C290.941 312.966 290.916 312.952 290.888 312.944C290.555 312.873 290.138 312.8 289.846 312.724C288.614 312.329 287.405 311.864 286.227 311.33C283.953 310.415 281.596 309.724 279.187 309.265C278.354 309.239 277.543 309.539 276.929 310.102C276.355 309.993 275.78 309.892 275.204 309.8C271.303 322.046 263.024 332.434 251.944 338.988Z" fill="#326CE5"/>
<path d="M330.676 312.77L312.503 234.036C312.014 231.998 311.078 230.095 309.763 228.462C308.447 226.829 306.784 225.508 304.894 224.594L231.336 189.567C229.43 188.659 227.344 188.188 225.231 188.188C223.118 188.188 221.032 188.659 219.126 189.567L145.574 224.615C143.685 225.528 142.022 226.849 140.705 228.48C139.389 230.112 138.452 232.015 137.963 234.052L119.822 312.791C119.412 314.606 119.37 316.484 119.698 318.316C120.025 320.147 120.716 321.895 121.729 323.458C121.979 323.839 122.243 324.209 122.53 324.566L173.439 387.703C174.773 389.327 176.45 390.639 178.351 391.543C180.251 392.448 182.328 392.923 184.433 392.936L266.072 392.916C268.178 392.905 270.254 392.43 272.154 391.527C274.055 390.624 275.732 389.314 277.068 387.69L327.958 324.548C329.262 322.911 330.182 321.004 330.652 318.967C331.122 316.93 331.13 314.813 330.676 312.773V312.77ZM321.882 316.457C321.76 317.014 321.601 317.563 321.406 318.1C320.938 319.406 320.256 320.626 319.389 321.71L274.166 377.822L272.745 379.588C271.869 380.661 270.822 381.584 269.647 382.32C269.194 382.61 268.723 382.872 268.238 383.104C267.911 383.255 267.578 383.392 267.239 383.514C266.806 383.679 266.364 383.82 265.917 383.939C265.293 384.107 264.657 384.227 264.015 384.3C263.567 384.351 263.117 384.377 262.667 384.378L188.565 384.396H187.838C186.73 384.389 185.628 384.237 184.56 383.945C183.257 383.601 182.014 383.061 180.874 382.344C179.971 381.771 179.144 381.088 178.411 380.311C178.188 380.076 177.963 379.847 177.761 379.596L131.098 321.729C130.838 321.402 130.594 321.063 130.367 320.712C129.839 319.898 129.408 319.026 129.083 318.112C128.89 317.577 128.733 317.029 128.613 316.473C128.206 314.649 128.207 312.757 128.617 310.933L145.247 238.765C145.696 236.898 146.554 235.154 147.76 233.658C148.966 232.162 150.49 230.952 152.222 230.115L219.635 197.991C221.383 197.159 223.295 196.728 225.231 196.728C227.167 196.728 229.079 197.159 230.827 197.991L298.25 230.101C299.982 230.939 301.506 232.149 302.712 233.646C303.917 235.142 304.775 236.886 305.223 238.753L321.88 310.921C322.29 312.744 322.291 314.635 321.882 316.459V316.457Z" fill="white"/>
<path d="M292.82 305.14C292.476 305.061 291.985 304.925 291.647 304.863C290.365 304.686 289.073 304.582 287.779 304.552C285.333 304.393 282.909 303.996 280.541 303.368C279.81 302.957 279.208 302.352 278.801 301.621L277.172 301.148C278.913 288.454 275.923 275.565 268.768 264.925C269.185 264.547 269.974 263.85 270.197 263.645C270.142 262.816 270.413 261.998 270.954 261.366C272.813 259.773 274.823 258.364 276.956 257.16C278.11 256.575 279.23 255.923 280.309 255.209C280.569 255.016 280.925 254.711 281.197 254.494C281.677 254.189 282.086 253.787 282.4 253.314C282.714 252.841 282.924 252.308 283.018 251.748C283.111 251.189 283.086 250.616 282.944 250.067C282.801 249.518 282.544 249.006 282.19 248.562C281.836 248.118 281.392 247.754 280.888 247.492C280.383 247.231 279.829 247.078 279.262 247.044C278.694 247.01 278.126 247.095 277.594 247.294C277.061 247.493 276.577 247.802 276.172 248.199C275.896 248.416 275.522 248.7 275.277 248.912C274.334 249.797 273.444 250.737 272.61 251.725C270.961 253.534 269.139 255.178 267.17 256.635C266.395 256.949 265.547 257.041 264.722 256.9L263.187 257.994C254.351 248.744 242.449 243.008 229.693 241.851C229.655 241.316 229.609 240.347 229.595 240.054C228.91 239.58 228.438 238.858 228.279 238.042C228.193 235.599 228.346 233.154 228.736 230.741C228.992 229.477 229.176 228.2 229.285 226.915C229.298 226.59 229.279 226.119 229.279 225.769C229.335 225.207 229.273 224.638 229.096 224.101C228.919 223.564 228.631 223.07 228.25 222.65C227.87 222.231 227.406 221.896 226.887 221.666C226.369 221.437 225.808 221.319 225.241 221.319C224.674 221.319 224.114 221.438 223.595 221.668C223.077 221.898 222.613 222.233 222.233 222.653C221.853 223.073 221.566 223.567 221.389 224.105C221.212 224.642 221.151 225.211 221.208 225.773C221.208 225.811 221.217 225.848 221.218 225.886C221.214 226.22 221.198 226.624 221.208 226.916C221.318 228.201 221.502 229.48 221.759 230.745C222.146 233.157 222.296 235.602 222.208 238.044C221.979 238.848 221.525 239.57 220.898 240.125L220.803 241.828C218.348 242.03 215.91 242.404 213.508 242.947C203.415 245.222 194.234 250.454 187.144 257.971C186.653 257.633 186.167 257.289 185.685 256.939C184.887 257.177 184.026 257.094 183.289 256.707C181.32 255.253 179.498 253.611 177.849 251.804C177.018 250.817 176.132 249.877 175.194 248.991C174.948 248.781 174.572 248.495 174.297 248.276C173.497 247.632 172.511 247.261 171.484 247.217C170.874 247.185 170.265 247.297 169.706 247.544C169.147 247.791 168.655 248.166 168.268 248.638C167.614 249.557 167.352 250.697 167.538 251.809C167.724 252.921 168.343 253.914 169.261 254.572L169.323 254.616C169.587 254.831 169.912 255.107 170.157 255.285C171.233 256 172.35 256.652 173.502 257.238C175.635 258.443 177.645 259.852 179.503 261.446C179.985 262.129 180.267 262.933 180.314 263.767L181.606 264.919C174.471 275.597 171.539 288.526 173.373 301.228L171.684 301.718C171.243 302.42 170.65 303.016 169.949 303.46C167.583 304.09 165.16 304.489 162.716 304.65C161.421 304.679 160.128 304.783 158.845 304.96C158.535 305.018 158.105 305.126 157.768 305.21L157.732 305.218L157.675 305.235C157.116 305.308 156.578 305.497 156.097 305.79C155.615 306.082 155.2 306.471 154.878 306.933C154.556 307.394 154.335 307.918 154.227 308.47C154.119 309.022 154.129 309.59 154.254 310.138C154.379 310.686 154.618 311.203 154.955 311.654C155.291 312.104 155.719 312.48 156.21 312.757C156.7 313.034 157.244 313.205 157.805 313.26C158.366 313.316 158.932 313.254 159.468 313.078L159.528 313.068C159.555 313.063 159.577 313.049 159.604 313.045C159.937 312.968 160.356 312.889 160.648 312.81C161.88 312.418 163.089 311.956 164.268 311.426C166.541 310.512 168.897 309.821 171.303 309.362C172.138 309.412 172.941 309.696 173.623 310.179L175.382 309.878C179.331 322.048 187.609 332.356 198.654 338.857L197.918 340.612C198.26 341.319 198.385 342.111 198.279 342.888C197.273 345.181 196.05 347.373 194.626 349.434C193.844 350.464 193.121 351.538 192.463 352.65C192.302 352.953 192.098 353.418 191.945 353.735C191.653 354.219 191.467 354.758 191.397 355.318C191.327 355.877 191.375 356.446 191.539 356.986C191.703 357.526 191.978 358.025 192.347 358.453C192.715 358.881 193.17 359.226 193.681 359.468C194.192 359.71 194.748 359.842 195.313 359.857C195.879 359.872 196.441 359.768 196.964 359.553C197.486 359.338 197.958 359.016 198.349 358.608C198.739 358.2 199.04 357.715 199.231 357.184L199.238 357.176V357.167C199.391 356.852 199.608 356.439 199.737 356.144C200.196 354.938 200.585 353.707 200.901 352.456C201.598 349.911 202.65 347.477 204.026 345.225C204.507 344.775 205.113 344.479 205.765 344.378L206.68 342.728C218.659 347.323 231.914 347.356 243.917 342.823C244.173 343.278 244.651 344.15 244.777 344.37C245.601 344.502 246.341 344.95 246.837 345.62C247.98 347.78 248.908 350.047 249.608 352.387C249.927 353.638 250.318 354.869 250.78 356.076C250.91 356.373 251.124 356.791 251.279 357.108C251.469 357.639 251.769 358.124 252.16 358.533C252.55 358.941 253.021 359.264 253.544 359.48C254.067 359.696 254.629 359.8 255.194 359.786C255.76 359.772 256.316 359.641 256.828 359.399C257.339 359.158 257.794 358.813 258.164 358.386C258.533 357.959 258.809 357.459 258.974 356.919C259.138 356.38 259.188 355.811 259.119 355.251C259.05 354.691 258.864 354.152 258.574 353.668C258.42 353.35 258.208 352.886 258.048 352.584C257.389 351.474 256.667 350.403 255.884 349.376C254.486 347.368 253.288 345.228 252.306 342.987C252.093 342.185 252.205 341.332 252.616 340.612C252.358 340.085 252.133 339.543 251.944 338.988C263.024 332.434 271.303 322.047 275.204 309.801C275.726 309.884 276.635 310.042 276.931 310.103C277.545 309.541 278.355 309.24 279.187 309.266C281.595 309.725 283.951 310.416 286.224 311.331C287.404 311.865 288.613 312.33 289.846 312.725C290.138 312.801 290.554 312.874 290.888 312.947C290.916 312.955 290.941 312.966 290.968 312.974L291.025 312.983C291.56 313.158 292.126 313.22 292.687 313.164C293.248 313.109 293.791 312.937 294.281 312.661C294.772 312.384 295.199 312.009 295.535 311.558C295.872 311.107 296.111 310.592 296.236 310.044C296.362 309.496 296.371 308.928 296.264 308.376C296.157 307.824 295.935 307.301 295.614 306.839C295.292 306.378 294.878 305.988 294.397 305.696C293.916 305.403 293.379 305.214 292.82 305.14ZM254.481 264.145L237.235 276.339L237.175 276.311C236.655 276.689 236.043 276.919 235.402 276.978C234.762 277.036 234.117 276.92 233.537 276.643C232.957 276.365 232.464 275.936 232.109 275.401C231.754 274.866 231.551 274.245 231.522 273.604L231.502 273.595L230.304 252.516C239.423 253.645 247.917 257.731 254.48 264.145H254.481ZM221.994 287.25H228.484L232.519 292.281L231.072 298.557L225.244 301.355L219.398 298.551L217.949 292.273L221.994 287.25ZM215.888 253.254C217.31 252.935 218.747 252.688 220.194 252.516L218.994 273.627L218.906 273.669C218.879 274.31 218.678 274.932 218.324 275.468C217.971 276.004 217.479 276.435 216.899 276.714C216.32 276.993 215.676 277.11 215.035 277.053C214.394 276.995 213.781 276.766 213.261 276.389L213.227 276.408L195.87 264.132C201.396 258.716 208.33 254.948 215.888 253.254ZM189.576 272.022L205.423 286.159L205.406 286.245C205.891 286.666 206.253 287.211 206.453 287.822C206.652 288.433 206.682 289.086 206.538 289.712C206.395 290.338 206.084 290.913 205.638 291.377C205.192 291.84 204.629 292.174 204.008 292.343L203.991 292.412L183.679 298.258C182.667 289.102 184.742 279.87 189.576 272.022ZM210.793 309.577L202.723 329.029C194.976 324.083 189.083 316.726 185.956 308.098L206.783 304.569L206.819 304.616C207.049 304.572 207.283 304.551 207.517 304.554C208.101 304.563 208.674 304.715 209.185 304.997C209.696 305.279 210.13 305.682 210.448 306.17C210.766 306.659 210.958 307.219 211.008 307.799C211.057 308.38 210.963 308.963 210.733 309.499L210.793 309.577ZM234.616 334.592C227.064 336.319 219.18 335.915 211.846 333.425L222.089 314.951H222.106C222.41 314.386 222.862 313.915 223.414 313.586C223.966 313.257 224.596 313.083 225.239 313.082C225.881 313.082 226.512 313.254 227.064 313.582C227.617 313.91 228.069 314.381 228.375 314.945H228.452L238.72 333.45C237.387 333.894 236.019 334.275 234.616 334.593V334.592ZM247.849 329.107L239.695 309.457L239.72 309.422C239.359 308.581 239.336 307.634 239.657 306.777C239.978 305.92 240.618 305.22 241.444 304.822C241.87 304.614 242.333 304.494 242.807 304.469C243.08 304.457 243.355 304.477 243.624 304.529L243.659 304.485L264.672 308.027C261.57 316.724 255.65 324.141 247.849 329.107ZM266.878 298.189L246.464 292.324L246.445 292.239C245.825 292.068 245.263 291.733 244.818 291.269C244.374 290.805 244.064 290.23 243.921 289.605C243.777 288.98 243.807 288.327 244.005 287.717C244.204 287.107 244.564 286.562 245.049 286.14L245.041 286.099L260.799 272.031C265.625 279.859 267.759 289.043 266.877 298.19L266.878 298.189Z" fill="white"/>
<defs>
<clipPath id="clip0_9_463">
<rect width="140" height="18" fill="white" transform="translate(56 215)"/>
</clipPath>
<clipPath id="clip1_9_463">
<rect width="140" height="18" fill="white" transform="translate(56 253)"/>
</clipPath>
<clipPath id="clip2_9_463">
<rect width="140" height="18" fill="white" transform="translate(56 291)"/>
</clipPath>
<clipPath id="clip3_9_463">
<rect width="140" height="18" fill="white" transform="translate(56 329)"/>
</clipPath>
<clipPath id="clip4_9_463">
<rect width="140" height="18" fill="white" transform="translate(56 367)"/>
</clipPath>
<clipPath id="clip5_9_463">
<rect width="140" height="18" fill="white" transform="translate(254 215)"/>
</clipPath>
<clipPath id="clip6_9_463">
<rect width="140" height="18" fill="white" transform="translate(254 253)"/>
</clipPath>
<clipPath id="clip7_9_463">
<rect width="140" height="18" fill="white" transform="translate(254 291)"/>
</clipPath>
<clipPath id="clip8_9_463">
<rect width="140" height="18" fill="white" transform="translate(254 329)"/>
</clipPath>
<clipPath id="clip9_9_463">
<rect width="140" height="18" fill="white" transform="translate(254 367)"/>
</clipPath>
</defs>
</svg>
