<svg width="300" height="300" viewBox="0 0 300 300" fill="none" xmlns="http://www.w3.org/2000/svg">
<rect width="300" height="300" rx="30" fill="#282C34"/>
<g clip-path="url(#clip0_3_55)">
<rect x="168.5" y="38.5" width="103" height="223" rx="6.5" stroke="#ABB2BF" stroke-width="7"/>
<rect x="28.5" y="38.5" width="103" height="223" rx="6.5" stroke="#ABB2BF" stroke-width="7"/>
<line x1="149.5" y1="38.5" x2="149.5" y2="261.5" stroke="#ABB2BF" stroke-width="7" stroke-linecap="round" stroke-dasharray="20 20"/>
</g>
<line x1="187.5" y1="238.5" x2="219.5" y2="238.5" stroke="#DB6A73" stroke-width="15" stroke-linecap="round"/>
<line x1="239.5" y1="238.5" x2="252.5" y2="238.5" stroke="#C075D7" stroke-width="15" stroke-linecap="round"/>
<line x1="228.5" y1="210.5" x2="252.5" y2="210.5" stroke="#98C379" stroke-width="15" stroke-linecap="round"/>
<line x1="187.5" y1="210.5" x2="208.5" y2="210.5" stroke="#E5C07B" stroke-width="15" stroke-linecap="round"/>
<line x1="187.5" y1="182.5" x2="203.5" y2="182.5" stroke="#98C379" stroke-width="15" stroke-linecap="round"/>
<line x1="223.5" y1="182.5" x2="252.5" y2="182.5" stroke="#50A3AE" stroke-width="15" stroke-linecap="round"/>
<line x1="239.5" y1="154.5" x2="252.5" y2="154.5" stroke="#98C379" stroke-width="15" stroke-linecap="round"/>
<line x1="187.5" y1="154.5" x2="219.5" y2="154.5" stroke="#50A3AE" stroke-width="15" stroke-linecap="round"/>
<line x1="208.5" y1="127.5" x2="252.5" y2="127.5" stroke="#DAB776" stroke-width="15" stroke-linecap="round"/>
<line x1="187.5" y1="127.5" x2="188.5" y2="127.5" stroke="#DB6A73" stroke-width="15" stroke-linecap="round"/>
<path d="M206.151 101V64.6364H221.314C224.036 64.6364 226.315 65.0211 228.15 65.7905C229.996 66.5599 231.381 67.6371 232.305 69.022C233.24 70.407 233.707 72.0109 233.707 73.8338C233.707 75.2188 233.417 76.4557 232.837 77.5447C232.257 78.6219 231.458 79.5156 230.44 80.2259C229.422 80.9361 228.245 81.4332 226.907 81.7173V82.0724C228.375 82.1435 229.73 82.54 230.973 83.2621C232.228 83.9841 233.234 84.9903 233.991 86.2805C234.749 87.5589 235.128 89.0741 235.128 90.826C235.128 92.7791 234.631 94.5251 233.636 96.0639C232.642 97.5909 231.204 98.7983 229.322 99.6861C227.44 100.562 225.155 101 222.468 101H206.151ZM214.94 93.9155H220.373C222.279 93.9155 223.681 93.5545 224.581 92.8324C225.492 92.1103 225.948 91.1042 225.948 89.8139C225.948 88.8788 225.729 88.0739 225.291 87.3991C224.853 86.7126 224.232 86.1858 223.427 85.8189C222.622 85.4401 221.657 85.2507 220.533 85.2507H214.94V93.9155ZM214.94 79.5866H219.805C220.763 79.5866 221.616 79.4268 222.362 79.1072C223.107 78.7876 223.687 78.326 224.102 77.7223C224.528 77.1186 224.741 76.3906 224.741 75.5384C224.741 74.3191 224.309 73.3603 223.445 72.6619C222.58 71.9635 221.415 71.6143 219.947 71.6143H214.94V79.5866Z" fill="#599FD9"/>
<line x1="47.5" y1="239.5" x2="79.5" y2="239.5" stroke="#98C379" stroke-width="15" stroke-linecap="round"/>
<line x1="99.5" y1="239.5" x2="112.5" y2="239.5" stroke="#C075D7" stroke-width="15" stroke-linecap="round"/>
<line x1="110.5" y1="211.5" x2="112.5" y2="211.5" stroke="#98C379" stroke-width="15" stroke-linecap="round"/>
<line x1="88.5" y1="211.5" x2="90.5" y2="211.5" stroke="#98C379" stroke-width="15" stroke-linecap="round"/>
<line x1="47.5" y1="211.5" x2="68.5" y2="211.5" stroke="#E5C07B" stroke-width="15" stroke-linecap="round"/>
<line x1="47.5" y1="183.5" x2="63.5" y2="183.5" stroke="#98C379" stroke-width="15" stroke-linecap="round"/>
<line x1="83.5" y1="183.5" x2="112.5" y2="183.5" stroke="#50A3AE" stroke-width="15" stroke-linecap="round"/>
<line x1="99.5" y1="155.5" x2="112.5" y2="155.5" stroke="#98C379" stroke-width="15" stroke-linecap="round"/>
<line x1="68.5" y1="155.5" x2="79.5" y2="155.5" stroke="#599FD9" stroke-width="15" stroke-linecap="round"/>
<line x1="47.5" y1="155.5" x2="48.5" y2="155.5" stroke="#DB6A73" stroke-width="15" stroke-linecap="round"/>
<line x1="99.5" y1="127.5" x2="112.5" y2="127.5" stroke="#50A3AE" stroke-width="15" stroke-linecap="round"/>
<line x1="47.5" y1="127.5" x2="79.5" y2="127.5" stroke="#98C379" stroke-width="15" stroke-linecap="round"/>
<path d="M71.8308 101H62.3848L74.6539 64.6364H86.3549L98.6241 101H89.1781L80.6376 73.7983H80.3535L71.8308 101ZM70.5701 86.6889H90.3145V93.3651H70.5701V86.6889Z" fill="#DB6A73"/>
<path d="M252.695 252.401C252.591 252.38 252.485 252.372 252.379 252.377C252.197 252.387 252.018 252.433 251.853 252.513C251.534 252.666 251.286 252.936 251.162 253.266C251.038 253.596 251.047 253.961 251.187 254.284L251.177 254.298L254.328 261.862C257.342 259.951 259.629 257.095 260.827 253.748L252.709 252.384L252.695 252.401ZM240.064 253.473C239.996 253.175 239.829 252.908 239.59 252.715C239.351 252.523 239.053 252.415 238.746 252.41C238.655 252.409 238.564 252.417 238.475 252.434L238.461 252.418L230.414 253.776C231.622 257.097 233.9 259.929 236.893 261.833L240.012 254.343L239.987 254.314C240.102 254.049 240.129 253.754 240.064 253.473ZM246.804 256.41C246.686 256.192 246.511 256.01 246.298 255.884C246.084 255.757 245.84 255.69 245.592 255.69C245.343 255.691 245.099 255.758 244.886 255.885C244.673 256.013 244.498 256.195 244.381 256.413H244.375L240.417 263.525C243.251 264.484 246.297 264.64 249.215 263.975C249.756 263.853 250.284 263.706 250.8 263.534L246.834 256.41L246.804 256.41ZM259.332 239.889L253.243 245.305L253.246 245.323C253.059 245.485 252.92 245.695 252.843 245.93C252.766 246.165 252.755 246.416 252.81 246.657C252.865 246.897 252.985 247.119 253.157 247.297C253.329 247.476 253.546 247.605 253.785 247.67L253.793 247.703L261.68 249.961C262.02 246.439 261.196 242.903 259.332 239.89V239.889ZM248.019 240.496C248.031 240.742 248.109 240.981 248.246 241.187C248.383 241.393 248.574 241.559 248.798 241.665C249.022 241.772 249.271 241.817 249.519 241.795C249.766 241.772 250.003 241.684 250.204 241.538L250.228 241.548L256.89 236.853C254.354 234.385 251.072 232.812 247.549 232.378L248.012 240.494L248.019 240.496ZM240.964 241.568C241.165 241.713 241.402 241.802 241.649 241.824C241.896 241.846 242.145 241.801 242.369 241.693C242.593 241.586 242.783 241.42 242.92 241.214C243.056 241.008 243.134 240.769 243.145 240.522L243.179 240.506L243.642 232.378C243.083 232.444 242.528 232.539 241.979 232.663C239.058 233.315 236.379 234.766 234.245 236.851L240.951 241.576L240.964 241.568ZM237.389 247.71C237.629 247.645 237.846 247.516 238.019 247.338C238.191 247.159 238.311 246.938 238.367 246.697C238.422 246.456 238.411 246.204 238.333 245.969C238.256 245.734 238.116 245.524 237.929 245.362L237.935 245.33L231.813 239.887C229.945 242.908 229.143 246.462 229.534 249.987L237.382 247.736L237.389 247.71ZM243.335 250.101L245.594 251.18L247.846 250.103L248.405 247.687L246.846 245.75H244.338L242.775 247.684L243.335 250.101Z" fill="#326CE5"/>
<path d="M282.931 254.861L276.495 227.078C276.322 226.359 275.991 225.688 275.525 225.112C275.059 224.536 274.47 224.07 273.801 223.747L247.75 211.386C247.075 211.065 246.337 210.899 245.588 210.899C244.84 210.899 244.102 211.065 243.427 211.386L217.381 223.754C216.712 224.076 216.123 224.542 215.657 225.118C215.191 225.694 214.859 226.365 214.686 227.084L208.261 254.867C208.102 255.569 208.102 256.297 208.259 257C208.306 257.214 208.366 257.424 208.441 257.63C208.566 257.982 208.733 258.318 208.937 258.631C209.025 258.765 209.118 258.896 209.219 259.022L227.248 281.299C227.326 281.396 227.413 281.484 227.499 281.574C227.782 281.874 228.102 282.137 228.45 282.357C228.891 282.633 229.371 282.841 229.875 282.973C230.288 283.086 230.714 283.144 231.142 283.147H231.422L260.053 283.14C260.227 283.139 260.401 283.129 260.574 283.11C260.822 283.082 261.067 283.035 261.308 282.971C261.481 282.926 261.651 282.872 261.818 282.809C261.949 282.759 262.079 282.71 262.204 282.65C262.393 282.56 262.575 282.459 262.751 282.348C263.204 282.064 263.608 281.709 263.947 281.296L264.496 280.617L281.969 259.015C282.304 258.597 282.567 258.128 282.747 257.625C282.823 257.418 282.885 257.207 282.932 256.992C283.09 256.29 283.09 255.561 282.931 254.859L282.931 254.861ZM255.91 265.667C255.983 265.88 256.07 266.089 256.17 266.292C256.011 266.569 255.967 266.897 256.049 267.206C256.428 268.069 256.891 268.893 257.431 269.666C257.734 270.061 258.013 270.474 258.267 270.901C258.33 271.017 258.412 271.196 258.472 271.318C258.584 271.504 258.656 271.712 258.682 271.928C258.709 272.143 258.69 272.362 258.626 272.57C258.563 272.778 258.456 272.97 258.313 273.134C258.17 273.299 257.995 273.432 257.797 273.525C257.599 273.617 257.384 273.668 257.166 273.674C256.947 273.679 256.73 273.639 256.528 273.556C256.326 273.472 256.144 273.348 255.993 273.191C255.843 273.034 255.727 272.847 255.653 272.642C255.594 272.521 255.511 272.36 255.46 272.245C255.282 271.781 255.131 271.307 255.008 270.825C254.737 269.924 254.379 269.051 253.938 268.219C253.746 267.962 253.46 267.79 253.142 267.74C253.092 267.654 252.908 267.317 252.809 267.144C248.171 268.889 243.049 268.876 238.421 267.107L238.068 267.742C237.816 267.781 237.582 267.895 237.396 268.068C236.865 268.935 236.458 269.872 236.189 270.851C236.067 271.333 235.917 271.807 235.739 272.271C235.689 272.385 235.606 272.545 235.546 272.665V272.669L235.544 272.672C235.47 272.876 235.354 273.064 235.203 273.221C235.053 273.379 234.87 273.503 234.668 273.586C234.466 273.669 234.248 273.709 234.03 273.704C233.811 273.698 233.596 273.647 233.398 273.554C233.201 273.461 233.025 273.327 232.882 273.163C232.74 272.998 232.633 272.805 232.57 272.597C232.507 272.388 232.489 272.169 232.516 271.954C232.544 271.738 232.616 271.53 232.729 271.344C232.788 271.221 232.867 271.043 232.929 270.927C233.183 270.499 233.462 270.085 233.764 269.689C234.314 268.895 234.787 268.051 235.176 267.168C235.217 266.869 235.169 266.564 235.037 266.292L235.32 265.616C231.053 263.114 227.855 259.145 226.33 254.46L225.65 254.575C225.387 254.389 225.076 254.28 224.753 254.261C223.824 254.438 222.914 254.704 222.036 255.056C221.58 255.26 221.113 255.438 220.637 255.588C220.525 255.619 220.362 255.65 220.233 255.678C220.223 255.682 220.214 255.686 220.204 255.689C220.196 255.69 220.188 255.691 220.18 255.691C219.973 255.759 219.754 255.782 219.537 255.761C219.321 255.74 219.111 255.674 218.921 255.567C218.731 255.461 218.566 255.316 218.436 255.143C218.306 254.969 218.214 254.77 218.165 254.559C218.117 254.348 218.113 254.129 218.155 253.917C218.197 253.704 218.282 253.503 218.407 253.325C218.531 253.147 218.692 252.997 218.878 252.885C219.064 252.772 219.272 252.7 219.488 252.672L219.51 252.666L219.524 252.662C219.654 252.632 219.821 252.589 219.94 252.566C220.436 252.498 220.936 252.458 221.436 252.446C222.38 252.385 223.316 252.232 224.23 251.99C224.501 251.819 224.73 251.589 224.901 251.319L225.553 251.129C224.845 246.239 225.978 241.262 228.735 237.151L228.235 236.708C228.217 236.387 228.108 236.077 227.922 235.814C227.204 235.201 226.427 234.658 225.603 234.195C225.158 233.969 224.727 233.719 224.311 233.444C224.216 233.374 224.09 233.268 223.988 233.185L223.964 233.169C223.61 232.916 223.37 232.534 223.299 232.106C223.227 231.678 223.328 231.239 223.581 230.885C223.73 230.703 223.921 230.559 224.136 230.464C224.352 230.369 224.588 230.326 224.823 230.339C225.22 230.356 225.601 230.498 225.91 230.746C226.016 230.829 226.161 230.939 226.255 231.02C226.618 231.361 226.961 231.722 227.282 232.103C227.92 232.798 228.624 233.431 229.384 233.991C229.669 234.139 230.002 234.172 230.31 234.08C230.496 234.214 230.684 234.347 230.873 234.477C233.612 231.583 237.16 229.568 241.06 228.693C241.988 228.484 242.93 228.34 243.878 228.262L243.915 227.607C244.157 227.393 244.333 227.115 244.421 226.805C244.455 225.865 244.397 224.924 244.248 223.995C244.149 223.508 244.078 223.016 244.035 222.522C244.031 222.409 244.037 222.253 244.039 222.125C244.039 222.11 244.035 222.095 244.035 222.081C244.013 221.865 244.037 221.646 244.105 221.439C244.173 221.232 244.284 221.042 244.431 220.88C244.578 220.719 244.757 220.589 244.957 220.501C245.158 220.412 245.374 220.367 245.593 220.367C245.812 220.366 246.029 220.412 246.229 220.5C246.429 220.589 246.609 220.718 246.756 220.879C246.903 221.04 247.014 221.231 247.083 221.438C247.151 221.644 247.175 221.863 247.153 222.08C247.153 222.216 247.161 222.396 247.156 222.52C247.114 223.015 247.042 223.507 246.943 223.994C246.792 224.923 246.733 225.864 246.766 226.805C246.828 227.119 247.01 227.397 247.275 227.579C247.281 227.691 247.299 228.065 247.313 228.271C252.242 228.716 256.84 230.925 260.254 234.485L260.847 234.064C261.166 234.119 261.493 234.083 261.793 233.962C262.554 233.401 263.258 232.768 263.895 232.072C264.217 231.692 264.56 231.33 264.924 230.989C265.02 230.908 265.165 230.798 265.27 230.715C265.427 230.562 265.614 230.443 265.819 230.366C266.025 230.29 266.245 230.257 266.464 230.27C266.683 230.283 266.897 230.341 267.092 230.442C267.287 230.543 267.459 230.683 267.596 230.854C267.733 231.024 267.832 231.222 267.887 231.433C267.942 231.645 267.952 231.865 267.916 232.081C267.88 232.296 267.799 232.501 267.677 232.683C267.556 232.866 267.398 233.02 267.212 233.138C267.108 233.222 266.97 233.339 266.869 233.413C266.452 233.688 266.02 233.939 265.574 234.164C264.75 234.628 263.973 235.17 263.255 235.783C263.046 236.027 262.941 236.341 262.962 236.661C262.876 236.74 262.571 237.008 262.409 237.154C265.174 241.25 266.33 246.212 265.657 251.099L266.287 251.281C266.444 251.562 266.677 251.795 266.959 251.953C267.874 252.195 268.81 252.348 269.755 252.41C270.255 252.422 270.754 252.461 271.249 252.529C271.38 252.553 271.57 252.605 271.704 252.636C271.92 252.664 272.127 252.736 272.313 252.849C272.5 252.962 272.66 253.112 272.784 253.289C272.909 253.467 272.994 253.669 273.036 253.881C273.077 254.094 273.074 254.313 273.025 254.524C272.977 254.735 272.884 254.934 272.754 255.107C272.624 255.281 272.459 255.425 272.269 255.532C272.079 255.638 271.869 255.704 271.653 255.725C271.436 255.746 271.217 255.722 271.01 255.655L270.987 255.652C270.977 255.649 270.967 255.643 270.957 255.641C270.828 255.613 270.667 255.585 270.554 255.556C270.078 255.404 269.611 255.225 269.156 255.019C268.277 254.667 267.366 254.401 266.436 254.224C266.114 254.214 265.801 254.33 265.563 254.546C265.342 254.504 265.12 254.466 264.897 254.43C263.39 259.144 260.191 263.144 255.91 265.667Z" fill="#326CE5"/>
<path d="M286.329 255.573L279.308 225.263C279.119 224.478 278.758 223.745 278.249 223.117C277.741 222.488 277.098 221.98 276.368 221.628L247.948 208.143C247.211 207.794 246.405 207.612 245.589 207.612C244.773 207.612 243.967 207.794 243.23 208.143L214.813 221.636C214.083 221.987 213.44 222.496 212.932 223.124C212.423 223.752 212.061 224.485 211.872 225.269L204.863 255.581C204.705 256.28 204.689 257.003 204.815 257.708C204.942 258.414 205.208 259.087 205.6 259.688C205.696 259.835 205.799 259.977 205.909 260.114L225.579 284.421C226.094 285.046 226.742 285.551 227.476 285.899C228.211 286.247 229.013 286.43 229.827 286.435L261.369 286.428C262.182 286.423 262.985 286.241 263.719 285.893C264.453 285.545 265.101 285.041 265.617 284.416L285.279 260.108C285.783 259.477 286.138 258.743 286.32 257.959C286.502 257.175 286.505 256.36 286.329 255.574V255.573ZM282.932 256.993C282.884 257.207 282.823 257.419 282.748 257.625C282.567 258.128 282.304 258.598 281.968 259.015L264.496 280.617L263.947 281.297C263.608 281.71 263.204 282.065 262.75 282.349C262.575 282.46 262.393 282.561 262.206 282.65C262.079 282.708 261.951 282.761 261.82 282.808C261.652 282.872 261.482 282.926 261.309 282.972C261.068 283.036 260.822 283.083 260.574 283.111C260.401 283.13 260.227 283.14 260.053 283.141L231.423 283.148H231.142C230.714 283.145 230.288 283.087 229.875 282.974C229.372 282.842 228.892 282.634 228.451 282.358C228.102 282.137 227.783 281.874 227.5 281.575C227.414 281.485 227.327 281.396 227.248 281.3L209.22 259.022C209.119 258.896 209.025 258.766 208.937 258.631C208.733 258.318 208.567 257.982 208.441 257.63C208.367 257.424 208.306 257.213 208.26 256.999C208.102 256.297 208.103 255.568 208.261 254.866L214.686 227.083C214.86 226.365 215.191 225.693 215.657 225.117C216.123 224.541 216.712 224.075 217.381 223.753L243.427 211.386C244.102 211.066 244.841 210.9 245.589 210.9C246.337 210.9 247.076 211.066 247.751 211.386L273.801 223.748C274.47 224.07 275.059 224.536 275.525 225.112C275.991 225.688 276.322 226.36 276.495 227.079L282.931 254.861C283.089 255.563 283.09 256.291 282.932 256.993V256.993Z" fill="white"/>
<path d="M271.703 252.636C271.57 252.605 271.38 252.553 271.25 252.529C270.755 252.461 270.256 252.421 269.755 252.41C268.811 252.348 267.874 252.196 266.959 251.954C266.677 251.796 266.444 251.563 266.287 251.281L265.657 251.099C266.33 246.212 265.175 241.25 262.41 237.154C262.571 237.009 262.876 236.74 262.962 236.661C262.941 236.342 263.046 236.027 263.255 235.784C263.973 235.171 264.75 234.629 265.574 234.165C266.02 233.94 266.452 233.689 266.869 233.414C266.97 233.34 267.107 233.222 267.212 233.138C267.398 233.021 267.556 232.866 267.677 232.684C267.798 232.502 267.88 232.297 267.916 232.082C267.952 231.866 267.942 231.646 267.887 231.434C267.832 231.223 267.733 231.026 267.596 230.855C267.459 230.684 267.288 230.544 267.093 230.443C266.898 230.342 266.684 230.284 266.465 230.27C266.246 230.257 266.026 230.29 265.82 230.367C265.615 230.443 265.427 230.562 265.271 230.715C265.165 230.799 265.02 230.908 264.925 230.99C264.561 231.33 264.217 231.692 263.895 232.073C263.258 232.769 262.554 233.402 261.793 233.963C261.493 234.084 261.166 234.119 260.847 234.065L260.254 234.486C256.84 230.925 252.242 228.717 247.313 228.271C247.299 228.065 247.281 227.692 247.275 227.58C247.011 227.397 246.828 227.119 246.767 226.805C246.734 225.864 246.793 224.923 246.943 223.994C247.043 223.508 247.113 223.016 247.156 222.521C247.16 222.396 247.153 222.215 247.153 222.08C247.175 221.864 247.151 221.645 247.083 221.438C247.014 221.231 246.903 221.041 246.756 220.879C246.609 220.718 246.429 220.589 246.229 220.501C246.029 220.412 245.812 220.367 245.593 220.367C245.374 220.367 245.158 220.413 244.957 220.501C244.757 220.59 244.578 220.719 244.431 220.88C244.284 221.042 244.173 221.232 244.105 221.439C244.037 221.646 244.013 221.865 244.035 222.082C244.035 222.096 244.038 222.11 244.039 222.125C244.037 222.254 244.031 222.409 244.035 222.522C244.078 223.017 244.149 223.509 244.248 223.996C244.397 224.924 244.455 225.866 244.421 226.806C244.333 227.115 244.157 227.393 243.915 227.607L243.878 228.262C242.93 228.34 241.988 228.484 241.06 228.693C237.16 229.569 233.613 231.583 230.874 234.477C230.684 234.347 230.496 234.215 230.31 234.08C230.002 234.171 229.669 234.139 229.384 233.991C228.624 233.431 227.92 232.799 227.282 232.103C226.962 231.723 226.619 231.361 226.257 231.02C226.162 230.939 226.016 230.829 225.91 230.745C225.601 230.497 225.22 230.354 224.823 230.337C224.588 230.325 224.352 230.368 224.136 230.463C223.921 230.558 223.73 230.702 223.581 230.884C223.328 231.238 223.227 231.677 223.299 232.105C223.37 232.533 223.61 232.915 223.964 233.168L223.988 233.185C224.09 233.268 224.216 233.374 224.311 233.443C224.727 233.718 225.158 233.969 225.603 234.195C226.427 234.659 227.204 235.201 227.922 235.815C228.108 236.078 228.217 236.387 228.235 236.708L228.734 237.152C225.977 241.263 224.845 246.24 225.553 251.13L224.901 251.319C224.73 251.589 224.501 251.818 224.23 251.989C223.316 252.232 222.38 252.385 221.436 252.447C220.935 252.459 220.436 252.498 219.94 252.567C219.82 252.589 219.654 252.631 219.524 252.663L219.51 252.666L219.488 252.673C219.272 252.701 219.064 252.774 218.878 252.886C218.692 252.999 218.532 253.149 218.408 253.326C218.283 253.504 218.197 253.705 218.156 253.918C218.114 254.13 218.118 254.349 218.166 254.56C218.215 254.771 218.307 254.97 218.437 255.144C218.567 255.317 218.732 255.462 218.922 255.568C219.112 255.675 219.321 255.741 219.538 255.762C219.755 255.783 219.974 255.76 220.181 255.692L220.204 255.688C220.214 255.686 220.223 255.681 220.233 255.679C220.362 255.65 220.524 255.619 220.637 255.589C221.113 255.438 221.58 255.26 222.035 255.056C222.913 254.704 223.824 254.438 224.753 254.261C225.076 254.281 225.386 254.39 225.65 254.576L226.329 254.46C227.855 259.145 231.053 263.114 235.321 265.616L235.037 266.292C235.169 266.564 235.217 266.869 235.176 267.168C234.787 268.051 234.315 268.895 233.765 269.688C233.462 270.085 233.183 270.498 232.929 270.926C232.867 271.043 232.788 271.222 232.729 271.344C232.616 271.53 232.544 271.738 232.517 271.953C232.49 272.169 232.509 272.387 232.572 272.595C232.635 272.803 232.741 272.996 232.884 273.16C233.026 273.325 233.202 273.458 233.399 273.551C233.597 273.644 233.812 273.695 234.03 273.701C234.249 273.706 234.466 273.667 234.668 273.584C234.87 273.501 235.052 273.377 235.203 273.22C235.354 273.063 235.47 272.876 235.544 272.672L235.546 272.669V272.665C235.605 272.544 235.689 272.385 235.739 272.271C235.917 271.807 236.067 271.333 236.189 270.851C236.458 269.872 236.865 268.935 237.396 268.068C237.582 267.894 237.816 267.781 238.068 267.742L238.422 267.107C243.05 268.875 248.172 268.888 252.809 267.143C252.908 267.318 253.092 267.654 253.141 267.739C253.46 267.789 253.745 267.962 253.937 268.22C254.379 269.051 254.737 269.924 255.008 270.825C255.131 271.307 255.282 271.781 255.46 272.245C255.511 272.36 255.593 272.52 255.653 272.642C255.727 272.847 255.843 273.034 255.993 273.191C256.144 273.348 256.326 273.472 256.528 273.556C256.73 273.639 256.947 273.679 257.166 273.674C257.384 273.668 257.599 273.617 257.797 273.525C257.995 273.432 258.17 273.299 258.313 273.134C258.456 272.97 258.563 272.778 258.626 272.57C258.69 272.362 258.709 272.143 258.682 271.928C258.656 271.712 258.584 271.504 258.472 271.318C258.412 271.196 258.33 271.017 258.268 270.901C258.014 270.474 257.735 270.061 257.433 269.666C256.892 268.893 256.429 268.069 256.05 267.206C255.968 266.898 256.011 266.569 256.17 266.292C256.07 266.089 255.983 265.88 255.91 265.667C260.191 263.144 263.39 259.145 264.897 254.43C265.099 254.462 265.45 254.523 265.564 254.546C265.801 254.33 266.114 254.215 266.436 254.225C267.366 254.401 268.277 254.667 269.155 255.019C269.61 255.225 270.078 255.404 270.554 255.556C270.667 255.585 270.827 255.613 270.957 255.642C270.967 255.645 270.977 255.649 270.987 255.652L271.01 255.655C271.216 255.723 271.435 255.747 271.652 255.725C271.868 255.704 272.078 255.638 272.268 255.531C272.457 255.425 272.622 255.28 272.752 255.107C272.882 254.933 272.975 254.735 273.023 254.524C273.072 254.313 273.075 254.094 273.034 253.882C272.992 253.669 272.907 253.468 272.783 253.29C272.658 253.113 272.498 252.963 272.312 252.85C272.127 252.737 271.919 252.664 271.703 252.636ZM256.89 236.854L250.227 241.548L250.204 241.537C250.003 241.683 249.766 241.772 249.519 241.794C249.272 241.817 249.023 241.772 248.798 241.665C248.574 241.558 248.384 241.393 248.247 241.187C248.109 240.981 248.031 240.742 248.02 240.495L248.012 240.492L247.549 232.377C251.072 232.812 254.354 234.385 256.89 236.854H256.89ZM244.339 245.749H246.846L248.405 247.686L247.846 250.102L245.594 251.179L243.336 250.099L242.776 247.683L244.339 245.749ZM241.98 232.661C242.529 232.538 243.084 232.443 243.643 232.377L243.179 240.504L243.145 240.52C243.135 240.767 243.057 241.007 242.921 241.213C242.784 241.419 242.594 241.585 242.37 241.693C242.146 241.8 241.897 241.845 241.65 241.823C241.402 241.801 241.165 241.713 240.964 241.567L240.952 241.575L234.245 236.849C236.38 234.764 239.059 233.313 241.98 232.661ZM231.814 239.886L237.936 245.329L237.929 245.362C238.117 245.524 238.257 245.734 238.334 245.969C238.411 246.204 238.422 246.456 238.367 246.697C238.312 246.938 238.191 247.159 238.019 247.337C237.847 247.516 237.629 247.645 237.389 247.71L237.383 247.736L229.535 249.987C229.144 246.462 229.946 242.908 231.814 239.886ZM240.011 254.344L236.893 261.833C233.9 259.929 231.623 257.096 230.415 253.775L238.462 252.416L238.475 252.434C238.564 252.417 238.655 252.409 238.745 252.41C238.971 252.414 239.192 252.472 239.39 252.581C239.587 252.689 239.755 252.845 239.877 253.033C240 253.221 240.075 253.436 240.094 253.66C240.113 253.883 240.077 254.108 239.988 254.314L240.011 254.344ZM249.215 263.974C246.298 264.639 243.251 264.484 240.418 263.525L244.375 256.413H244.382C244.499 256.196 244.674 256.014 244.887 255.887C245.1 255.761 245.344 255.694 245.592 255.694C245.841 255.693 246.084 255.76 246.298 255.886C246.511 256.012 246.686 256.194 246.804 256.411H246.834L250.801 263.535C250.286 263.706 249.757 263.852 249.215 263.975V263.974ZM254.328 261.863L251.178 254.298L251.187 254.284C251.048 253.961 251.039 253.596 251.163 253.266C251.287 252.936 251.534 252.667 251.853 252.514C252.018 252.434 252.197 252.387 252.38 252.378C252.486 252.373 252.592 252.381 252.696 252.401L252.709 252.384L260.828 253.748C259.629 257.096 257.342 259.951 254.328 261.863ZM261.68 249.96L253.793 247.702L253.785 247.669C253.546 247.604 253.329 247.475 253.157 247.296C252.985 247.118 252.866 246.896 252.81 246.655C252.755 246.415 252.766 246.164 252.843 245.929C252.92 245.694 253.059 245.484 253.246 245.321L253.243 245.306L259.332 239.89C261.196 242.904 262.021 246.439 261.68 249.961L261.68 249.96Z" fill="white"/>
<defs>
<clipPath id="clip0_3_55">
<rect width="250" height="230" fill="white" transform="translate(25 35)"/>
</clipPath>
</defs>
</svg>
