<svg width="301" height="330" viewBox="0 0 301 330" fill="none" xmlns="http://www.w3.org/2000/svg">
<g clip-path="url(#clip0_9_395)">
<rect x="6" y="7.5" width="115" height="115" rx="5" stroke="white" stroke-width="10"/>
<path d="M49.1634 95H35.9815L56.0668 36.8182H71.919L91.9759 95H78.794L64.2202 50.1136H63.7656L49.1634 95ZM48.3395 72.1307H79.4759V81.733H48.3395V72.1307Z" fill="white"/>
<g clip-path="url(#clip1_9_395)">
<rect x="147.5" y="10" width="8" height="18.125" rx="2" fill="white"/>
<rect x="147.5" y="53.125" width="8" height="18.125" rx="2" fill="white"/>
<rect x="147.5" y="96.25" width="8" height="18.125" rx="2" fill="white"/>
</g>
<rect x="181" y="7.5" width="115" height="115" rx="5" stroke="white" stroke-width="10"/>
<path d="M217.112 95V36.8182H240.407C244.687 36.8182 248.257 37.4527 251.117 38.7216C253.977 39.9905 256.127 41.7519 257.566 44.0057C259.005 46.2405 259.725 48.8163 259.725 51.733C259.725 54.0057 259.271 56.0038 258.362 57.7273C257.452 59.4318 256.202 60.8333 254.612 61.9318C253.04 63.0114 251.24 63.7784 249.214 64.233V64.8011C251.43 64.8958 253.504 65.5208 255.435 66.6761C257.386 67.8314 258.968 69.4508 260.18 71.5341C261.392 73.5985 261.998 76.0606 261.998 78.9205C261.998 82.0076 261.231 84.7633 259.697 87.1875C258.182 89.5928 255.937 91.4962 252.964 92.8977C249.99 94.2992 246.326 95 241.969 95H217.112ZM229.413 84.9432H239.441C242.869 84.9432 245.369 84.2898 246.941 82.983C248.513 81.6572 249.299 79.8958 249.299 77.6989C249.299 76.089 248.911 74.6686 248.134 73.4375C247.358 72.2064 246.25 71.2405 244.81 70.5398C243.39 69.839 241.695 69.4886 239.725 69.4886H229.413V84.9432ZM229.413 61.1648H238.532C240.218 61.1648 241.714 60.8712 243.021 60.2841C244.346 59.678 245.388 58.8258 246.146 57.7273C246.922 56.6288 247.31 55.3125 247.31 53.7784C247.31 51.6761 246.562 49.9811 245.066 48.6932C243.589 47.4053 241.487 46.7614 238.759 46.7614H229.413V61.1648Z" fill="white"/>
<path d="M257.676 249.77L239.503 171.036C239.014 168.998 238.078 167.095 236.763 165.462C235.447 163.829 233.784 162.508 231.894 161.594L158.336 126.567C156.429 125.659 154.344 125.188 152.231 125.188C150.118 125.188 148.032 125.659 146.126 126.567L72.5744 161.615C70.6846 162.528 69.0215 163.849 67.7053 165.48C66.389 167.112 65.4523 169.015 64.9628 171.052L46.8216 249.791C46.4124 251.606 46.3704 253.484 46.6979 255.316C47.0254 257.147 47.7159 258.895 48.7291 260.458C48.9786 260.839 49.2435 261.209 49.5303 261.566L100.439 324.703C101.773 326.327 103.45 327.639 105.351 328.543C107.251 329.448 109.328 329.923 111.433 329.936L193.072 329.916C195.177 329.905 197.254 329.43 199.154 328.527C201.055 327.624 202.732 326.314 204.068 324.69L254.958 261.548C256.262 259.911 257.182 258.004 257.652 255.967C258.122 253.93 258.13 251.813 257.676 249.773V249.77ZM248.882 253.457C248.76 254.014 248.601 254.563 248.406 255.1C247.938 256.406 247.256 257.626 246.389 258.71L201.166 314.822L199.745 316.588C198.869 317.661 197.822 318.584 196.647 319.32C196.194 319.61 195.723 319.872 195.238 320.104C194.911 320.255 194.578 320.392 194.239 320.514C193.806 320.679 193.364 320.82 192.917 320.939C192.293 321.107 191.657 321.227 191.015 321.3C190.567 321.351 190.117 321.377 189.667 321.378L115.565 321.396H114.838C113.73 321.389 112.628 321.237 111.56 320.945C110.257 320.601 109.014 320.061 107.874 319.344C106.971 318.771 106.144 318.088 105.411 317.311C105.188 317.076 104.963 316.847 104.761 316.596L58.098 258.729C57.8379 258.402 57.5941 258.063 57.3665 257.712C56.8389 256.898 56.408 256.026 56.0825 255.112C55.8899 254.577 55.733 254.029 55.613 253.473C55.2055 251.649 55.2068 249.757 55.6169 247.933L72.2474 175.765C72.6956 173.898 73.5538 172.154 74.76 170.658C75.9662 169.162 77.4902 167.952 79.2222 167.115L146.635 134.991C148.383 134.159 150.295 133.728 152.231 133.728C154.167 133.728 156.079 134.159 157.827 134.991L225.25 167.101C226.982 167.939 228.506 169.149 229.711 170.646C230.917 172.142 231.775 173.886 232.223 175.753L248.88 247.921C249.29 249.744 249.291 251.635 248.882 253.459V253.457Z" fill="white"/>
<path d="M219.82 242.14C219.476 242.061 218.985 241.925 218.647 241.863C217.365 241.686 216.073 241.582 214.779 241.552C212.333 241.393 209.909 240.996 207.541 240.368C206.81 239.957 206.208 239.352 205.801 238.621L204.172 238.148C205.913 225.454 202.923 212.565 195.768 201.925C196.185 201.547 196.974 200.85 197.197 200.645C197.142 199.816 197.413 198.998 197.954 198.366C199.813 196.773 201.823 195.364 203.956 194.16C205.11 193.575 206.23 192.923 207.309 192.209C207.569 192.016 207.925 191.711 208.197 191.494C208.677 191.189 209.086 190.787 209.4 190.314C209.714 189.841 209.924 189.308 210.018 188.748C210.111 188.189 210.086 187.616 209.944 187.067C209.801 186.518 209.544 186.006 209.19 185.562C208.836 185.118 208.392 184.754 207.888 184.492C207.383 184.231 206.829 184.078 206.262 184.044C205.694 184.01 205.126 184.095 204.594 184.294C204.061 184.493 203.577 184.802 203.172 185.199C202.896 185.416 202.522 185.7 202.277 185.912C201.334 186.797 200.444 187.737 199.61 188.725C197.961 190.534 196.139 192.178 194.17 193.635C193.395 193.949 192.547 194.041 191.722 193.9L190.187 194.994C181.351 185.744 169.449 180.008 156.693 178.851C156.655 178.316 156.609 177.347 156.595 177.054C155.91 176.58 155.438 175.858 155.279 175.042C155.193 172.599 155.346 170.154 155.736 167.741C155.992 166.477 156.176 165.2 156.285 163.915C156.298 163.59 156.279 163.119 156.279 162.769C156.335 162.207 156.273 161.638 156.096 161.101C155.919 160.564 155.631 160.07 155.25 159.65C154.87 159.231 154.406 158.896 153.887 158.666C153.369 158.437 152.808 158.319 152.241 158.319C151.674 158.319 151.114 158.438 150.595 158.668C150.077 158.898 149.613 159.233 149.233 159.653C148.853 160.073 148.566 160.567 148.389 161.105C148.212 161.642 148.151 162.211 148.208 162.773C148.208 162.811 148.217 162.848 148.218 162.886C148.214 163.22 148.198 163.624 148.208 163.916C148.318 165.201 148.502 166.48 148.759 167.745C149.146 170.157 149.296 172.602 149.208 175.044C148.979 175.848 148.525 176.57 147.898 177.125L147.803 178.828C145.348 179.03 142.91 179.404 140.508 179.947C130.415 182.222 121.234 187.454 114.144 194.971C113.653 194.633 113.167 194.289 112.685 193.939C111.887 194.177 111.026 194.094 110.289 193.707C108.32 192.253 106.498 190.611 104.849 188.804C104.018 187.817 103.132 186.877 102.194 185.991C101.948 185.781 101.572 185.495 101.297 185.276C100.497 184.632 99.5108 184.261 98.4839 184.217C97.8737 184.185 97.2645 184.297 96.7059 184.544C96.1472 184.791 95.6548 185.166 95.2685 185.638C94.6144 186.557 94.3516 187.697 94.5375 188.809C94.7235 189.921 95.3431 190.914 96.2609 191.572L96.3231 191.616C96.587 191.831 96.912 192.107 97.1568 192.285C98.2335 193 99.3504 193.652 100.502 194.238C102.635 195.443 104.645 196.852 106.503 198.446C106.985 199.129 107.267 199.933 107.314 200.767L108.606 201.919C101.471 212.597 98.5393 225.526 100.373 238.228L98.6837 238.718C98.2429 239.42 97.6503 240.016 96.9493 240.46C94.5829 241.09 92.1604 241.489 89.7164 241.65C88.421 241.679 87.1285 241.783 85.8451 241.96C85.5353 242.018 85.1051 242.126 84.7676 242.21L84.7322 242.218L84.6748 242.235C84.1159 242.308 83.5785 242.497 83.097 242.79C82.6154 243.082 82.2004 243.471 81.8784 243.933C81.5564 244.394 81.3345 244.918 81.227 245.47C81.1195 246.022 81.1287 246.59 81.254 247.138C81.3793 247.686 81.618 248.203 81.9547 248.654C82.2915 249.104 82.7189 249.48 83.2096 249.757C83.7004 250.034 84.2436 250.205 84.8046 250.26C85.3656 250.316 85.932 250.254 86.4675 250.078L86.5278 250.068C86.5545 250.063 86.5775 250.049 86.6043 250.045C86.937 249.968 87.3558 249.889 87.6483 249.81C88.8803 249.418 90.0889 248.956 91.2681 248.426C93.5405 247.512 95.8966 246.821 98.3032 246.362C99.1377 246.412 99.9413 246.696 100.623 247.179L102.382 246.878C106.331 259.048 114.609 269.356 125.654 275.857L124.918 277.612C125.26 278.319 125.385 279.111 125.279 279.888C124.273 282.181 123.05 284.373 121.626 286.434C120.844 287.464 120.121 288.538 119.463 289.65C119.302 289.953 119.098 290.418 118.945 290.735C118.653 291.219 118.467 291.758 118.397 292.318C118.327 292.877 118.375 293.446 118.539 293.986C118.703 294.526 118.978 295.025 119.347 295.453C119.715 295.881 120.17 296.226 120.681 296.468C121.192 296.71 121.748 296.842 122.313 296.857C122.879 296.872 123.441 296.768 123.964 296.553C124.486 296.338 124.958 296.016 125.349 295.608C125.739 295.2 126.04 294.715 126.231 294.184L126.238 294.176V294.167C126.391 293.852 126.608 293.439 126.737 293.144C127.196 291.938 127.585 290.707 127.901 289.456C128.598 286.911 129.65 284.477 131.026 282.225C131.507 281.775 132.113 281.479 132.765 281.378L133.68 279.728C145.659 284.323 158.914 284.356 170.917 279.823C171.173 280.278 171.651 281.15 171.777 281.37C172.601 281.502 173.341 281.95 173.837 282.62C174.98 284.78 175.908 287.047 176.608 289.387C176.927 290.638 177.318 291.869 177.78 293.076C177.91 293.373 178.124 293.791 178.279 294.108C178.469 294.639 178.769 295.124 179.16 295.533C179.55 295.941 180.021 296.264 180.544 296.48C181.067 296.696 181.629 296.8 182.194 296.786C182.76 296.772 183.316 296.641 183.828 296.399C184.339 296.158 184.794 295.813 185.164 295.386C185.533 294.959 185.809 294.459 185.974 293.919C186.138 293.38 186.188 292.811 186.119 292.251C186.05 291.691 185.864 291.152 185.574 290.668C185.42 290.35 185.208 289.886 185.048 289.584C184.389 288.474 183.667 287.403 182.884 286.376C181.486 284.368 180.288 282.228 179.306 279.987C179.093 279.185 179.205 278.332 179.616 277.612C179.358 277.085 179.133 276.543 178.944 275.988C190.024 269.434 198.303 259.047 202.204 246.801C202.726 246.884 203.635 247.042 203.931 247.103C204.545 246.541 205.355 246.24 206.187 246.266C208.595 246.725 210.951 247.416 213.224 248.331C214.404 248.865 215.613 249.33 216.846 249.725C217.138 249.801 217.554 249.874 217.888 249.947C217.916 249.955 217.941 249.966 217.968 249.974L218.025 249.983C218.56 250.158 219.126 250.22 219.687 250.164C220.248 250.109 220.791 249.937 221.281 249.661C221.772 249.384 222.199 249.009 222.535 248.558C222.872 248.107 223.111 247.592 223.236 247.044C223.362 246.496 223.371 245.928 223.264 245.376C223.157 244.824 222.935 244.301 222.614 243.839C222.292 243.378 221.878 242.988 221.397 242.696C220.916 242.403 220.379 242.214 219.82 242.14ZM181.481 201.145L164.235 213.339L164.175 213.311C163.655 213.689 163.043 213.919 162.402 213.978C161.762 214.036 161.117 213.92 160.537 213.643C159.957 213.365 159.464 212.936 159.109 212.401C158.754 211.866 158.551 211.245 158.522 210.604L158.502 210.595L157.304 189.516C166.423 190.645 174.917 194.731 181.48 201.145H181.481ZM148.994 224.25H155.484L159.519 229.281L158.072 235.557L152.244 238.355L146.398 235.551L144.949 229.273L148.994 224.25ZM142.888 190.254C144.31 189.935 145.747 189.688 147.194 189.516L145.994 210.627L145.906 210.669C145.879 211.31 145.678 211.932 145.324 212.468C144.971 213.004 144.479 213.435 143.899 213.714C143.32 213.993 142.676 214.11 142.035 214.053C141.394 213.995 140.781 213.766 140.261 213.389L140.227 213.408L122.87 201.132C128.396 195.716 135.33 191.948 142.888 190.254ZM116.576 209.022L132.423 223.159L132.406 223.245C132.891 223.666 133.253 224.211 133.453 224.822C133.652 225.433 133.682 226.086 133.538 226.712C133.395 227.338 133.084 227.913 132.638 228.377C132.192 228.84 131.629 229.174 131.008 229.343L130.991 229.412L110.679 235.258C109.667 226.102 111.742 216.87 116.576 209.022ZM137.793 246.577L129.723 266.029C121.976 261.083 116.083 253.726 112.956 245.098L133.783 241.569L133.819 241.616C134.049 241.572 134.283 241.551 134.517 241.554C135.101 241.563 135.674 241.715 136.185 241.997C136.696 242.279 137.13 242.682 137.448 243.17C137.766 243.659 137.958 244.219 138.008 244.799C138.057 245.38 137.963 245.963 137.733 246.499L137.793 246.577ZM161.616 271.592C154.064 273.319 146.18 272.915 138.846 270.425L149.089 251.951H149.106C149.41 251.386 149.862 250.915 150.414 250.586C150.966 250.257 151.596 250.083 152.239 250.082C152.881 250.082 153.512 250.254 154.064 250.582C154.617 250.91 155.069 251.381 155.375 251.945H155.452L165.72 270.45C164.387 270.894 163.019 271.275 161.616 271.593V271.592ZM174.849 266.107L166.695 246.457L166.72 246.422C166.359 245.581 166.336 244.634 166.657 243.777C166.978 242.92 167.618 242.22 168.444 241.822C168.87 241.614 169.333 241.494 169.807 241.469C170.08 241.457 170.355 241.477 170.624 241.529L170.659 241.485L191.672 245.027C188.57 253.724 182.65 261.141 174.849 266.107ZM193.878 235.189L173.464 229.324L173.445 229.239C172.825 229.068 172.263 228.733 171.818 228.269C171.374 227.805 171.064 227.23 170.921 226.605C170.777 225.98 170.807 225.327 171.005 224.717C171.204 224.107 171.564 223.562 172.049 223.14L172.041 223.099L187.799 209.031C192.625 216.859 194.759 226.043 193.877 235.19L193.878 235.189Z" fill="white"/>
</g>
<defs>
<clipPath id="clip0_9_395">
<rect width="301" height="330" fill="white"/>
</clipPath>
<clipPath id="clip1_9_395">
<rect width="8" height="340" fill="white" transform="translate(147.5)"/>
</clipPath>
</defs>
</svg>
