<svg width="300" height="300" viewBox="0 0 300 300" fill="none" xmlns="http://www.w3.org/2000/svg">
<g clip-path="url(#clip0_3_135)">
<rect x="183.5" y="3.5" width="113" height="113" rx="6.5" stroke="white" stroke-width="7"/>
<rect x="3.5" y="3.5" width="113" height="113" rx="6.5" stroke="white" stroke-width="7"/>
<path d="M254.735 219.956L236.81 142.331C236.328 140.322 235.405 138.445 234.107 136.836C232.809 135.226 231.169 133.924 229.305 133.023L156.75 98.4881C154.869 97.5933 152.812 97.1288 150.728 97.1288C148.644 97.1288 146.586 97.5933 144.706 98.4881L72.1574 133.043C70.2934 133.944 68.6531 135.245 67.3547 136.854C66.0564 138.463 65.1325 140.339 64.6497 142.347L46.7559 219.977C46.3523 221.766 46.3108 223.618 46.6338 225.424C46.9569 227.23 47.638 228.953 48.6373 230.493C48.8835 230.869 49.1447 231.234 49.4276 231.586L99.6422 293.834C100.958 295.435 102.612 296.728 104.487 297.62C106.361 298.512 108.41 298.98 110.487 298.993L191.012 298.974C193.089 298.962 195.137 298.494 197.011 297.604C198.886 296.713 200.541 295.422 201.858 293.821L252.054 231.568C253.34 229.954 254.248 228.074 254.711 226.066C255.175 224.057 255.183 221.971 254.735 219.959V219.956ZM246.061 223.591C245.94 224.141 245.783 224.682 245.591 225.211C245.13 226.499 244.457 227.702 243.602 228.771L198.995 284.092L197.594 285.833C196.73 286.891 195.698 287.801 194.538 288.527C194.091 288.812 193.627 289.071 193.148 289.3C192.826 289.448 192.497 289.583 192.163 289.704C191.736 289.866 191.3 290.006 190.859 290.123C190.243 290.288 189.616 290.407 188.983 290.479C188.541 290.529 188.097 290.554 187.653 290.556L114.562 290.573H113.845C112.752 290.566 111.665 290.417 110.611 290.129C109.326 289.79 108.1 289.257 106.976 288.551C106.085 287.986 105.269 287.313 104.546 286.546C104.326 286.315 104.105 286.088 103.905 285.841L57.8784 228.789C57.6219 228.467 57.3815 228.132 57.157 227.786C56.6365 226.984 56.2115 226.124 55.8905 225.223C55.7005 224.695 55.5458 224.155 55.4274 223.607C55.0255 221.808 55.0267 219.943 55.4312 218.145L71.8349 146.994C72.2771 145.153 73.1236 143.433 74.3133 141.959C75.503 140.484 77.0063 139.291 78.7146 138.466L145.208 106.794C146.932 105.974 148.818 105.548 150.728 105.548C152.638 105.548 154.523 105.974 156.247 106.794L222.751 138.452C224.459 139.278 225.962 140.471 227.152 141.946C228.341 143.422 229.187 145.142 229.629 146.982L246.059 218.133C246.464 219.931 246.464 221.795 246.061 223.593V223.591Z" fill="white"/>
<path d="M217.396 212.433C217.056 212.355 216.571 212.222 216.238 212.161C214.973 211.986 213.7 211.884 212.423 211.854C210.011 211.697 207.62 211.306 205.284 210.687C204.563 210.282 203.969 209.685 203.567 208.964L201.96 208.498C203.678 195.983 200.729 183.275 193.671 172.785C194.082 172.413 194.861 171.725 195.081 171.523C195.026 170.706 195.294 169.899 195.828 169.276C197.661 167.706 199.644 166.317 201.747 165.13C202.886 164.553 203.99 163.91 205.055 163.206C205.311 163.016 205.662 162.715 205.931 162.501C206.404 162.2 206.808 161.804 207.117 161.338C207.427 160.871 207.634 160.346 207.727 159.794C207.819 159.243 207.794 158.678 207.653 158.137C207.513 157.596 207.259 157.09 206.91 156.653C206.561 156.215 206.123 155.856 205.626 155.598C205.128 155.34 204.582 155.19 204.022 155.156C203.462 155.122 202.902 155.206 202.376 155.403C201.851 155.599 201.374 155.903 200.974 156.295C200.702 156.509 200.333 156.789 200.091 156.998C199.161 157.871 198.283 158.797 197.461 159.771C195.834 161.554 194.037 163.175 192.095 164.612C191.33 164.922 190.494 165.012 189.681 164.873L188.166 165.951C179.45 156.832 167.711 151.177 155.129 150.036C155.092 149.509 155.047 148.553 155.032 148.265C154.357 147.798 153.891 147.086 153.734 146.281C153.65 143.873 153.801 141.462 154.185 139.082C154.438 137.837 154.619 136.577 154.727 135.31C154.739 134.991 154.72 134.526 154.72 134.181C154.776 133.626 154.715 133.066 154.54 132.536C154.366 132.007 154.081 131.519 153.706 131.106C153.331 130.692 152.873 130.362 152.362 130.136C151.85 129.91 151.297 129.793 150.738 129.793C150.179 129.794 149.626 129.911 149.115 130.137C148.604 130.364 148.146 130.695 147.771 131.109C147.396 131.522 147.112 132.01 146.938 132.54C146.764 133.07 146.703 133.63 146.76 134.185C146.76 134.222 146.768 134.258 146.769 134.296C146.765 134.625 146.749 135.024 146.76 135.311C146.869 136.579 147.05 137.839 147.303 139.086C147.685 141.465 147.833 143.875 147.746 146.283C147.52 147.075 147.072 147.787 146.454 148.334L146.36 150.014C143.938 150.213 141.534 150.581 139.164 151.116C129.209 153.359 120.154 158.518 113.16 165.929C112.676 165.596 112.196 165.257 111.721 164.911C110.934 165.146 110.085 165.064 109.358 164.683C107.416 163.25 105.618 161.631 103.992 159.849C103.173 158.875 102.298 157.949 101.373 157.076C101.13 156.869 100.76 156.587 100.488 156.37C99.6989 155.736 98.7266 155.37 97.7136 155.327C97.1118 155.295 96.5109 155.406 95.9599 155.649C95.4088 155.893 94.9231 156.262 94.5421 156.728C93.8969 157.634 93.6377 158.758 93.8211 159.854C94.0045 160.95 94.6157 161.93 95.521 162.578L95.5823 162.621C95.8426 162.834 96.1632 163.105 96.4047 163.281C97.4666 163.986 98.5684 164.628 99.7045 165.207C101.808 166.394 103.79 167.783 105.623 169.355C106.099 170.028 106.377 170.821 106.424 171.644L107.698 172.779C100.66 183.307 97.7683 196.054 99.5771 208.577L97.9107 209.06C97.4759 209.752 96.8914 210.339 96.2 210.778C93.8658 211.399 91.4764 211.792 89.0657 211.95C87.788 211.979 86.5131 212.081 85.2472 212.257C84.9417 212.313 84.5173 212.42 84.1844 212.503L84.1495 212.511L84.0929 212.527C83.5416 212.6 83.0115 212.786 82.5365 213.074C82.0616 213.362 81.6522 213.746 81.3346 214.201C81.017 214.656 80.7981 215.172 80.6921 215.717C80.586 216.261 80.5951 216.821 80.7187 217.362C80.8423 217.902 81.0777 218.411 81.4099 218.856C81.742 219.3 82.1636 219.671 82.6477 219.943C83.1317 220.216 83.6676 220.385 84.2209 220.44C84.7743 220.494 85.3329 220.433 85.8612 220.26L85.9206 220.25C85.947 220.245 85.9696 220.232 85.996 220.227C86.3242 220.152 86.7373 220.074 87.0258 219.996C88.241 219.609 89.4331 219.153 90.5963 218.631C92.8377 217.73 95.1616 217.048 97.5354 216.596C98.3586 216.646 99.1511 216.925 99.8233 217.402L101.559 217.105C105.454 229.104 113.619 239.267 124.513 245.676L123.788 247.406C124.125 248.103 124.248 248.884 124.143 249.65C123.151 251.911 121.945 254.072 120.541 256.104C119.769 257.119 119.056 258.178 118.406 259.275C118.248 259.574 118.047 260.032 117.895 260.345C117.608 260.821 117.424 261.353 117.355 261.905C117.286 262.457 117.334 263.017 117.495 263.549C117.657 264.081 117.928 264.574 118.292 264.996C118.656 265.417 119.104 265.758 119.608 265.997C120.112 266.235 120.66 266.366 121.218 266.38C121.776 266.394 122.33 266.292 122.846 266.08C123.361 265.868 123.827 265.551 124.212 265.148C124.597 264.746 124.894 264.268 125.082 263.745L125.089 263.737V263.728C125.24 263.417 125.454 263.01 125.581 262.72C126.035 261.531 126.418 260.316 126.73 259.083C127.417 256.574 128.455 254.175 129.812 251.954C130.286 251.51 130.884 251.219 131.527 251.119L132.43 249.493C144.245 254.022 157.32 254.055 169.159 249.586C169.411 250.035 169.883 250.894 170.007 251.112C170.82 251.241 171.55 251.683 172.04 252.343C173.167 254.473 174.082 256.708 174.773 259.015C175.087 260.249 175.473 261.463 175.928 262.652C176.057 262.945 176.267 263.357 176.42 263.669C176.608 264.193 176.904 264.672 177.289 265.074C177.674 265.477 178.139 265.795 178.655 266.008C179.17 266.221 179.725 266.324 180.283 266.31C180.84 266.297 181.389 266.167 181.894 265.929C182.398 265.691 182.847 265.351 183.212 264.93C183.576 264.509 183.848 264.016 184.01 263.484C184.173 262.952 184.221 262.391 184.153 261.839C184.085 261.287 183.902 260.755 183.616 260.278C183.464 259.965 183.255 259.507 183.097 259.21C182.448 258.115 181.735 257.059 180.963 256.047C179.584 254.067 178.402 251.957 177.434 249.747C177.224 248.957 177.334 248.116 177.74 247.406C177.485 246.887 177.263 246.352 177.077 245.805C188.006 239.344 196.171 229.102 200.02 217.029C200.534 217.111 201.431 217.267 201.723 217.326C202.328 216.772 203.127 216.476 203.948 216.502C206.323 216.954 208.647 217.636 210.889 218.537C212.053 219.064 213.245 219.523 214.462 219.912C214.749 219.987 215.16 220.059 215.49 220.131C215.517 220.139 215.542 220.15 215.568 220.157L215.625 220.166C216.153 220.339 216.711 220.4 217.264 220.345C217.817 220.29 218.353 220.121 218.836 219.849C219.32 219.576 219.742 219.206 220.074 218.761C220.406 218.317 220.641 217.809 220.765 217.268C220.889 216.728 220.898 216.168 220.792 215.624C220.686 215.08 220.468 214.564 220.151 214.109C219.834 213.654 219.425 213.27 218.951 212.982C218.476 212.693 217.947 212.506 217.396 212.433ZM179.579 172.016L162.568 184.039L162.509 184.01C161.996 184.383 161.392 184.61 160.76 184.668C160.128 184.726 159.493 184.612 158.921 184.338C158.349 184.064 157.862 183.641 157.512 183.114C157.162 182.586 156.962 181.974 156.933 181.342L156.914 181.333L155.732 160.551C164.726 161.664 173.104 165.692 179.578 172.016H179.579ZM147.535 194.796H153.937L157.916 199.756L156.489 205.943L150.74 208.702L144.975 205.937L143.545 199.748L147.535 194.796ZM141.513 161.278C142.915 160.964 144.332 160.721 145.759 160.551L144.576 181.365L144.489 181.406C144.462 182.038 144.264 182.651 143.915 183.179C143.567 183.708 143.081 184.133 142.51 184.408C141.938 184.683 141.303 184.798 140.671 184.742C140.039 184.686 139.434 184.459 138.921 184.087L138.888 184.106L121.768 172.004C127.218 166.664 134.057 162.949 141.513 161.278ZM115.559 179.782L131.19 193.72L131.173 193.805C131.652 194.22 132.009 194.758 132.206 195.36C132.402 195.962 132.431 196.606 132.29 197.223C132.148 197.84 131.841 198.407 131.402 198.864C130.962 199.321 130.407 199.651 129.794 199.817L129.778 199.885L109.742 205.649C108.744 196.622 110.791 187.52 115.559 179.782ZM136.487 216.808L128.527 235.986C120.886 231.11 115.073 223.856 111.989 215.35L132.532 211.871L132.567 211.917C132.793 211.874 133.024 211.853 133.255 211.856C133.831 211.865 134.396 212.015 134.9 212.292C135.405 212.57 135.832 212.968 136.146 213.45C136.46 213.932 136.649 214.483 136.698 215.055C136.748 215.628 136.654 216.203 136.428 216.731L136.487 216.808ZM159.984 241.471C152.536 243.174 144.759 242.775 137.525 240.321L147.628 222.107H147.645C147.946 221.55 148.392 221.085 148.936 220.761C149.48 220.436 150.102 220.265 150.735 220.264C151.369 220.263 151.992 220.434 152.536 220.757C153.081 221.081 153.528 221.545 153.829 222.101H153.904L164.033 240.345C162.718 240.783 161.369 241.158 159.984 241.472V241.471ZM173.037 236.063L164.995 216.69L165.019 216.655C164.663 215.826 164.641 214.892 164.957 214.048C165.274 213.203 165.905 212.513 166.72 212.12C167.14 211.915 167.597 211.797 168.064 211.772C168.334 211.76 168.605 211.78 168.87 211.832L168.905 211.788L189.631 215.28C186.571 223.855 180.732 231.167 173.037 236.063ZM191.807 205.581L171.671 199.799L171.652 199.714C171.041 199.546 170.486 199.215 170.048 198.758C169.61 198.301 169.304 197.734 169.163 197.118C169.021 196.501 169.05 195.858 169.246 195.256C169.442 194.655 169.798 194.118 170.275 193.701L170.268 193.661L185.811 179.792C190.571 187.509 192.676 196.564 191.806 205.582L191.807 205.581Z" fill="white"/>
<path d="M219.112 89V30.8182H242.407C246.687 30.8182 250.257 31.4527 253.117 32.7216C255.977 33.9905 258.127 35.7519 259.566 38.0057C261.005 40.2405 261.725 42.8163 261.725 45.733C261.725 48.0057 261.271 50.0038 260.362 51.7273C259.452 53.4318 258.202 54.8333 256.612 55.9318C255.04 57.0114 253.24 57.7784 251.214 58.233V58.8011C253.43 58.8958 255.504 59.5208 257.435 60.6761C259.386 61.8314 260.968 63.4508 262.18 65.5341C263.392 67.5985 263.998 70.0606 263.998 72.9205C263.998 76.0076 263.231 78.7633 261.697 81.1875C260.182 83.5928 257.937 85.4962 254.964 86.8977C251.99 88.2992 248.326 89 243.969 89H219.112ZM231.413 78.9432H241.441C244.869 78.9432 247.369 78.2898 248.941 76.983C250.513 75.6572 251.299 73.8958 251.299 71.6989C251.299 70.089 250.911 68.6686 250.134 67.4375C249.358 66.2064 248.25 65.2405 246.81 64.5398C245.39 63.839 243.695 63.4886 241.725 63.4886H231.413V78.9432ZM231.413 55.1648H240.532C242.218 55.1648 243.714 54.8712 245.021 54.2841C246.346 53.678 247.388 52.8258 248.146 51.7273C248.922 50.6288 249.31 49.3125 249.31 47.7784C249.31 45.6761 248.562 43.9811 247.066 42.6932C245.589 41.4053 243.487 40.7614 240.759 40.7614H231.413V55.1648Z" fill="white"/>
<path d="M45.1634 89H31.9815L52.0668 30.8182H67.919L87.9759 89H74.794L60.2202 44.1136H59.7656L45.1634 89ZM44.3395 66.1307H75.4759V75.733H44.3395V66.1307Z" fill="white"/>
<line x1="150.5" y1="10.5" x2="150.5" y2="83.5" stroke="white" stroke-width="7" stroke-linecap="round" stroke-dasharray="20 20"/>
</g>
<defs>
<clipPath id="clip0_3_135">
<rect width="300" height="300" fill="white"/>
</clipPath>
</defs>
</svg>
