<svg width="16" height="16" viewBox="0 0 16 16" fill="none" xmlns="http://www.w3.org/2000/svg">
<g clip-path="url(#clip0_9571_7658)">
<rect x="1" y="1" width="14" height="14" fill="#424242" stroke="#424242" stroke-linejoin="bevel"/>
<path d="M4.0718 11H2.75362L4.76214 5.18182H6.34737L8.35305 11H7.03487L5.57749 6.51136H5.53203L4.0718 11ZM3.98942 8.71307H7.10305V9.6733H3.98942V8.71307ZM8.65334 11V5.18182H10.9829C11.4109 5.18182 11.7679 5.24527 12.0539 5.37216C12.3399 5.49905 12.5549 5.67519 12.6988 5.90057C12.8427 6.12405 12.9147 6.38163 12.9147 6.6733C12.9147 6.90057 12.8692 7.10038 12.7783 7.27273C12.6874 7.44318 12.5624 7.58333 12.4033 7.69318C12.2461 7.80114 12.0662 7.87784 11.8636 7.9233V7.98011C12.0852 7.98958 12.2925 8.05208 12.4857 8.16761C12.6808 8.28314 12.8389 8.44508 12.9602 8.65341C13.0814 8.85985 13.142 9.10606 13.142 9.39205C13.142 9.70076 13.0653 9.97633 12.9119 10.2188C12.7603 10.4593 12.5359 10.6496 12.2386 10.7898C11.9412 10.9299 11.5747 11 11.1391 11H8.65334ZM9.88345 9.99432H10.8863C11.2291 9.99432 11.4791 9.92898 11.6363 9.7983C11.7935 9.66572 11.8721 9.48958 11.8721 9.26989C11.8721 9.1089 11.8333 8.96686 11.7556 8.84375C11.678 8.72064 11.5672 8.62405 11.4232 8.55398C11.2812 8.4839 11.1117 8.44886 10.9147 8.44886H9.88345V9.99432ZM9.88345 7.61648H10.7954C10.9639 7.61648 11.1136 7.58712 11.2442 7.52841C11.3768 7.4678 11.481 7.38258 11.5567 7.27273C11.6344 7.16288 11.6732 7.03125 11.6732 6.87784C11.6732 6.66761 11.5984 6.49811 11.4488 6.36932C11.3011 6.24053 11.0908 6.17614 10.8181 6.17614H9.88345V7.61648Z" fill="white"/>
</g>
<defs>
<clipPath id="clip0_9571_7658">
<rect width="16" height="16" fill="white"/>
</clipPath>
</defs>
</svg>
