<svg width="16" height="16" viewBox="0 0 16 16" fill="none" xmlns="http://www.w3.org/2000/svg">
<g clip-path="url(#clip0_6_26)">
<rect x="1" y="1" width="14" height="14" fill="#007ACC"/>
<rect x="1" y="1" width="14" height="14" stroke="#424242" stroke-linejoin="bevel"/>
<path d="M5.86115 11V5.18182H8.1907C8.61873 5.18182 8.97573 5.24527 9.26172 5.37216C9.5477 5.49905 9.76267 5.67519 9.90661 5.90057C10.0505 6.12405 10.1225 6.38163 10.1225 6.6733C10.1225 6.90057 10.0771 7.10038 9.98615 7.27273C9.89524 7.44318 9.77024 7.58333 9.61115 7.69318C9.45395 7.80114 9.27403 7.87784 9.07138 7.9233V7.98011C9.29297 7.98958 9.50036 8.05208 9.69354 8.16761C9.88861 8.28314 10.0468 8.44508 10.168 8.65341C10.2892 8.85985 10.3498 9.10606 10.3498 9.39205C10.3498 9.70076 10.2731 9.97633 10.1197 10.2188C9.96816 10.4593 9.74373 10.6496 9.44638 10.7898C9.14903 10.9299 8.78255 11 8.34695 11H5.86115ZM7.09126 9.99432H8.09411C8.43691 9.99432 8.68691 9.92898 8.84411 9.7983C9.0013 9.66572 9.0799 9.48958 9.0799 9.26989C9.0799 9.1089 9.04107 8.96686 8.96342 8.84375C8.88577 8.72064 8.77498 8.62405 8.63104 8.55398C8.48899 8.4839 8.31948 8.44886 8.12251 8.44886H7.09126V9.99432ZM7.09126 7.61648H8.0032C8.17176 7.61648 8.32138 7.58712 8.45206 7.52841C8.58464 7.4678 8.6888 7.38258 8.76456 7.27273C8.84221 7.16288 8.88104 7.03125 8.88104 6.87784C8.88104 6.66761 8.80623 6.49811 8.65661 6.36932C8.50888 6.24053 8.29865 6.17614 8.02592 6.17614H7.09126V7.61648Z" fill="white"/>
</g>
<defs>
<clipPath id="clip0_6_26">
<rect width="16" height="16" fill="white"/>
</clipPath>
</defs>
</svg>
